<svg id="Layer_1" data-name="Layer 1" xmlns="http://www.w3.org/2000/svg" viewBox="0 0 749.99 419.95"><defs><style>.cls-1{fill:#bde1e5;}.cls-2{fill:#e0f5fe;}.cls-3{fill:#00a4bd;}.cls-4{fill:#eaf0f6;}.cls-5{fill:#263238;}.cls-11,.cls-12,.cls-13,.cls-6{fill:none;}.cls-7{fill:#7c98b6;}.cls-8{fill:#cbd6e2;}.cls-9{fill:#fff;}.cls-10{fill:#253342;}.cls-11,.cls-12,.cls-13{stroke:#33475b;stroke-miterlimit:10;stroke-width:0.88px;}.cls-12{stroke-dasharray:4.41 4.41;}.cls-13{stroke-dasharray:4.41;}.cls-14{fill:#ff725e;}.cls-15{fill:#ffbe9d;}.cls-16{fill:#eb996e;}.cls-17{fill:#fafafa;}.cls-18{fill:#33475b;}</style></defs><title>5-sales-portal-that-can-help-you-meet-all-your-business-needs</title><rect class="cls-1" width="749.99" height="419.95"/><g id="freepik--Character--inject-328"><path class="cls-2" d="M233.68,270.52l-16.63-77.21c15.66-30.94,59.77-50.53,59.77-50.53l8.5,14.07c-18.83,11.92-36.52,26.66-44.69,47.39a106.82,106.82,0,0,0-3.92,65.63Z" transform="translate(-0.01 -0.04)"/><path class="cls-3" d="M279.41,160.74c-.29.27-.7.61-1.18,1-.24.19-.51.37-.78.61s-.57.46-.87.71c-.61.51-1.32,1-2.05,1.67s-1.51,1.32-2.37,2-1.73,1.56-2.68,2.4-1.9,1.8-2.91,2.78l-.77.74-.75.79-1.56,1.63-.4.43-.39.44-.78.88c-.53.6-1.09,1.2-1.62,1.83-1,1.28-2.17,2.57-3.21,4-.55.71-1.1,1.4-1.63,2.14l-1.6,2.24-.4.56-.38.59-.79,1.19c-.27.39-.52.8-.79,1.2s-.5.82-.76,1.23c-.48.83-1,1.66-1.51,2.52l-1.45,2.62a105.45,105.45,0,0,0-5.2,11.34,113.58,113.58,0,0,0-6.18,23.3L236,234.3,235.7,237l-.14,1.3-.1,1.29-.19,2.51-.09,2.44c0,.79-.08,1.58-.07,2.34v3.35l0,1.07c.07,1.38.08,2.74.19,4s.16,2.46.29,3.57.22,2.16.34,3.11.26,1.83.36,2.61l.15,1.12.16,1c.09.6.16,1.12.2,1.54.09.84.09,1.3,0,1.33s-.34-.36-.66-1.15c-.15-.4-.34-.89-.54-1.47l-.32-1c-.11-.34-.2-.7-.31-1.09-.21-.78-.46-1.64-.68-2.6s-.39-2-.63-3.13-.39-2.35-.58-3.62-.31-2.65-.45-4.09l-.1-1.09c0-.37,0-.75-.06-1.12l-.12-2.32c0-.81-.06-1.61,0-2.43s0-1.66,0-2.51l.1-2.59.06-1.33.11-1.35.22-2.75.34-2.81A106.08,106.08,0,0,1,239.27,207a99.65,99.65,0,0,1,5.45-11.72l1.54-2.69c.53-.88,1.08-1.73,1.61-2.59.29-.42.52-.85.8-1.26l.84-1.22.83-1.19.41-.6.43-.58,1.7-2.27c.56-.75,1.16-1.45,1.73-2.15,1.13-1.43,2.34-2.7,3.46-4,.57-.63,1.16-1.22,1.73-1.81l.85-.89.42-.43.43-.41,1.69-1.6.81-.77.83-.72c1.09-.94,2.12-1.87,3.15-2.65s2-1.58,2.91-2.24,1.79-1.31,2.61-1.84l2.26-1.44,1-.59.87-.48,1.4-.72c.77-.36,1.2-.51,1.26-.4S280,160.19,279.41,160.74Z" transform="translate(-0.01 -0.04)"/><path class="cls-3" d="M270,149.47a30.7,30.7,0,0,0-15,15.62,2,2,0,0,0,.06,1.7,2,2,0,0,0,2.7.88,67.26,67.26,0,0,0,7.59-4.49v0a1.63,1.63,0,0,0,2.34,2,18.27,18.27,0,0,0,5.28-4.82Z" transform="translate(-0.01 -0.04)"/><path class="cls-4" d="M267.16,155.19a8.05,8.05,0,0,0-5.1,5.47c-.14.54-.09,1.28.36,1.5s1-.13,1.35-.46l1.57-1.34c.49-.42,1.24-.84,1.74-.5s.43,1.17.92,1.55a1.08,1.08,0,0,0,1.16,0,3.23,3.23,0,0,0,.85-.88Z" transform="translate(-0.01 -0.04)"/><path class="cls-3" d="M268.74,140l-13-6.24,5.19-2.95A31.41,31.41,0,0,1,288,128.9l.15.06Z" transform="translate(-0.01 -0.04)"/><path class="cls-5" d="M288.07,129l-.27.21-1.05.6-4,2.29-14,8h-.08l-11.86-5.69-1.17-.54-.15-.08.15-.08c1-.61,2.05-1.18,3.06-1.74s2-1.15,3-1.66a32.15,32.15,0,0,1,6-2.41,30.07,30.07,0,0,1,5.72-1.08c.9-.11,1.79-.11,2.63-.15s1.66,0,2.43.08a30.58,30.58,0,0,1,7.16,1.34,18.56,18.56,0,0,1,1.88.64l.48.18.16.08-.65-.23c-.43-.14-1.05-.39-1.88-.62a31.14,31.14,0,0,0-7.16-1.3,17.5,17.5,0,0,0-2.42-.06c-.84,0-1.72,0-2.62.15a30.6,30.6,0,0,0-5.69,1.1,30.94,30.94,0,0,0-5.94,2.41c-1,.51-2,1.09-3,1.66l-3.06,1.74v-.16l1.17.55,11.85,5.69-.07,0,14-7.89,4-2.26,1.08-.61.28-.15.1-.06Z" transform="translate(-0.01 -0.04)"/><path class="cls-3" d="M285.72,169.28l-1.29,14.17,5.12-2.9a31,31,0,0,0,15.29-22l0-.16Z" transform="translate(-0.01 -0.04)"/><path class="cls-5" d="M304.78,158.44l-.27.16-1.06.61-3.95,2.27c-3.38,1.91-8.14,4.64-13.73,7.84l0-.07-1.17,12.93-.11,1.25-.13-.08,3-1.7c1-.56,2-1.09,2.91-1.67a31.68,31.68,0,0,0,5-3.81,30.22,30.22,0,0,0,3.8-4.27,18.35,18.35,0,0,0,1.45-2.14c.42-.72.84-1.39,1.17-2.08a30.87,30.87,0,0,0,2.53-6.71c.23-.82.32-1.47.42-1.9l.14-.67,0,.17-.09.5a19.12,19.12,0,0,1-.39,1.92,30,30,0,0,1-2.47,6.75,17.51,17.51,0,0,1-1.16,2.09c-.46.7-.91,1.44-1.46,2.16a29.25,29.25,0,0,1-3.8,4.3,31.56,31.56,0,0,1-5.06,3.85c-.94.57-1.92,1.11-2.92,1.67l-3,1.7-.14.08v-.17l.12-1.25,1.18-12.92v0h0l13.84-7.81,3.94-2.22,1-.57.27-.15.09,0Z" transform="translate(-0.01 -0.04)"/><path class="cls-4" d="M347.33,114.82c-1.33-2.33-9.87-3.46-22.11-1.46a82.64,82.64,0,0,0-12.85,3.28,69.35,69.35,0,0,0-12.06,5.41L261,144.38l6.48,11.41,3.76,6.61,6.48,11.41L321,149.22a68.66,68.66,0,0,0,16.22-14.66c7.8-9.69,11.39-17.4,10.07-19.73" transform="translate(-0.01 -0.04)"/><path class="cls-5" d="M347.25,114.75l-.08-.12-.14-.16a3.9,3.9,0,0,0-1.15-.76,16.08,16.08,0,0,0-5.21-1.16,50.51,50.51,0,0,0-8.52,0c-1.66.12-3.44.33-5.32.6s-3.85.63-5.91,1.1-4.22,1-6.42,1.73-4.48,1.49-6.79,2.47a70.56,70.56,0,0,0-7,3.42l-7.2,4.09-32.47,18.46,0-.13,8.36,14.72,8.36,14.71-.12,0c11.64-6.63,22.61-12.82,32.49-18.44l7.21-4.09,3.44-1.95A37.38,37.38,0,0,0,324,147.1a73.58,73.58,0,0,0,10.32-9.24A89.11,89.11,0,0,0,341.4,129a58.43,58.43,0,0,0,4.4-7.28,17,17,0,0,0,1.75-5,4.07,4.07,0,0,0-.06-1.39l-.06-.19-.06-.14,0-.11.05.11.07.13.06.2a4,4,0,0,1,.07,1.38,16.58,16.58,0,0,1-1.72,5.07,56.68,56.68,0,0,1-4.4,7.33,89.21,89.21,0,0,1-7,8.93,74,74,0,0,1-10.34,9.27c-1,.74-2.05,1.48-3.17,2.15l-3.44,2-7.21,4.09L277.78,173.9l-.08,0,0-.08-8.37-14.72-8.35-14.72-.05-.07.08,0,32.48-18.44,7.21-4.09a70.72,70.72,0,0,1,7-3.42,71.88,71.88,0,0,1,6.81-2.47c2.22-.69,4.36-1.26,6.42-1.73s4.05-.82,5.93-1.09,3.66-.47,5.33-.59a49.71,49.71,0,0,1,8.54,0,16.36,16.36,0,0,1,5.21,1.19,4,4,0,0,1,1.15.78l.13.16.09.12.06.1Z" transform="translate(-0.01 -0.04)"/><line class="cls-6" x1="268.21" y1="140.64" x2="284.59" y2="169.88"/><path class="cls-7" d="M276.48,155.25c4.52,8.08,8.15,14.63,8.11,14.67s-3.74-6.5-8.27-14.58-8.15-14.65-8.11-14.66S272,147.18,276.48,155.25Z" transform="translate(-0.01 -0.04)"/><line class="cls-6" x1="266.97" y1="141.51" x2="283.35" y2="170.75"/><path class="cls-7" d="M275.24,156.14c4.53,8.08,8.16,14.65,8.11,14.66s-3.74-6.5-8.26-14.58-8.16-14.65-8.11-14.66S270.72,148.07,275.24,156.14Z" transform="translate(-0.01 -0.04)"/><line class="cls-6" x1="265.57" y1="142.28" x2="281.95" y2="171.51"/><path class="cls-7" d="M273.84,156.9c4.53,8.07,8.16,14.62,8.12,14.66s-3.75-6.51-8.27-14.58-8.16-14.65-8.12-14.66S269.32,148.82,273.84,156.9Z" transform="translate(-0.01 -0.04)"/><line class="cls-6" x1="264.17" y1="143.04" x2="280.55" y2="172.28"/><path class="cls-7" d="M272.44,157.66c4.53,8.07,8.16,14.63,8.12,14.66s-3.75-6.5-8.27-14.57-8.16-14.66-8.11-14.67S267.92,149.58,272.44,157.66Z" transform="translate(-0.01 -0.04)"/><line class="cls-6" x1="262.77" y1="143.8" x2="279.15" y2="173.04"/><path class="cls-7" d="M271.05,158.42c4.53,8.08,8.15,14.64,8.11,14.68s-3.74-6.51-8.27-14.58-8.15-14.63-8.11-14.66S266.52,150.35,271.05,158.42Z" transform="translate(-0.01 -0.04)"/><path class="cls-7" d="M296.24,143.76c-.14.06-.33.19-.59.32-.52.31-1.26.72-2.15,1.24l-7.08,4.11-7.09,4.1-2.15,1.23-.59.33a.88.88,0,0,1-.22.1,1.37,1.37,0,0,1,.2-.13l.57-.36,2.13-1.27c1.8-1.08,4.3-2.55,7.06-4.15s5.27-3.05,7.11-4.07c.93-.52,1.66-.92,2.18-1.19.27-.13.46-.24.61-.29a.85.85,0,0,1,.22-.09A2.25,2.25,0,0,1,296.24,143.76Z" transform="translate(-0.01 -0.04)"/><path class="cls-7" d="M296.51,143.52c4.58,8.06,8.25,14.6,8.2,14.64s-3.79-6.49-8.36-14.55S288.11,129,288.15,129,291.94,135.45,296.51,143.52Z" transform="translate(-0.01 -0.04)"/><path class="cls-7" d="M280.79,149.14a1,1,0,0,0-.32-.54.88.88,0,0,0-.86-.24,1,1,0,0,0-.62.47.92.92,0,0,0,.37,1.26.89.89,0,0,0,.89,0,1.17,1.17,0,0,0,.46-.45l.11-.22a.42.42,0,0,1-.05.25,1.08,1.08,0,0,1-.47.52,1,1,0,0,1-1,0,1.12,1.12,0,0,1-.56-.75,1.09,1.09,0,0,1,.86-1.28,1,1,0,0,1,1,.3,1,1,0,0,1,.3.63.46.46,0,0,1,0,.26S280.81,149.31,280.79,149.14Z" transform="translate(-0.01 -0.04)"/><path class="cls-7" d="M289.06,144.28a1.18,1.18,0,0,0-.32-.55.9.9,0,0,0-.85-.23,1,1,0,0,0-.74.78,1,1,0,0,0,.48.94.89.89,0,0,0,.88,0,1,1,0,0,0,.46-.45,1.37,1.37,0,0,0,.11-.21.44.44,0,0,1,0,.25,1.07,1.07,0,0,1-.45.49,1,1,0,0,1-1,0,1.09,1.09,0,0,1,.31-2,1,1,0,0,1,1,.3,1.09,1.09,0,0,1,.3.63.46.46,0,0,1,0,.26S289.09,144.4,289.06,144.28Z" transform="translate(-0.01 -0.04)"/><path class="cls-7" d="M304.51,145.88a1,1,0,0,0-.32-.54.87.87,0,0,0-.85-.24,1,1,0,0,0-.63.47.93.93,0,0,0,.37,1.26.89.89,0,0,0,.89,0,1.11,1.11,0,0,0,.46-.45,1.18,1.18,0,0,0,.11-.22.42.42,0,0,1-.05.25,1.11,1.11,0,0,1-.46.52,1,1,0,0,1-1,0,1.09,1.09,0,0,1,.3-2,1,1,0,0,1,1,.3,1.13,1.13,0,0,1,.3.63.57.57,0,0,1,0,.26S304.53,146,304.51,145.88Z" transform="translate(-0.01 -0.04)"/><path class="cls-7" d="M306.11,148.31c-2.92,1.68-5.29,3-5.32,2.95s2.32-1.43,5.23-3.1,5.31-3,5.32-3S309,146.64,306.11,148.31Z" transform="translate(-0.01 -0.04)"/><path class="cls-3" d="M249.58,171.55a1.72,1.72,0,0,0-1.7-1.62,1.73,1.73,0,1,0,1.71,1.75" transform="translate(-0.01 -0.04)"/></g><path class="cls-8" d="M322.8,142.52a12.3,12.3,0,1,1,3.46-17.05l0,0A12.3,12.3,0,0,1,322.8,142.52Z" transform="translate(-0.01 -0.04)"/><path class="cls-7" d="M321.44,139.9c0-.05.29-.3.82-.83a10,10,0,0,0,1.8-2.48,9.37,9.37,0,0,0,.74-2,9.23,9.23,0,0,0,.29-2.4,7.92,7.92,0,0,0-.1-1.29,9.74,9.74,0,0,0-.31-1.32,8.6,8.6,0,0,0-.52-1.3,9.72,9.72,0,0,0-.73-1.25,11,11,0,0,0-.92-1.12,9.22,9.22,0,0,0-1.05-.92,9.07,9.07,0,0,0-2.32-1.28,9.56,9.56,0,0,0-2.35-.55,9.93,9.93,0,0,0-2.11,0,9.75,9.75,0,0,0-2.94.86,6.62,6.62,0,0,1-1.05.48s.27-.33.92-.73a8.92,8.92,0,0,1,3-1.12,9.37,9.37,0,0,1,4.75.4,9.66,9.66,0,0,1,2.52,1.33,9.07,9.07,0,0,1,1.14,1,9.64,9.64,0,0,1,1,1.2,9.55,9.55,0,0,1,1.34,2.75,9.69,9.69,0,0,1,.41,2.83,9.41,9.41,0,0,1-1.24,4.6,8.68,8.68,0,0,1-2.06,2.45C321.83,139.75,321.46,140,321.44,139.9Z" transform="translate(-0.01 -0.04)"/><path class="cls-3" d="M312,136.2l-1.35.91-.82-1.2,1.32-.89a6.91,6.91,0,0,1-1.07-3.66L312,131a5.94,5.94,0,0,0,.73,2.92l2-1.37c-.58-1.55-1.15-3.35.58-4.52,1.28-.87,3-.68,4.51,1.07l1.34-.91.82,1.21-1.31.89a6.71,6.71,0,0,1,.92,2.95l-1.88.4a6,6,0,0,0-.63-2.27L317,132.78c.6,1.55,1.15,3.32-.55,4.48C315.18,138.12,313.47,137.93,312,136.2Zm4.52-4.82,1.71-1.17c-.58-.54-1.1-.55-1.5-.28S316.27,130.73,316.47,131.38Zm-1.5,4c.42-.29.41-.79.24-1.43l-1.66,1.13C314.09,135.63,314.58,135.68,315,135.42Z" transform="translate(-0.01 -0.04)"/><path class="cls-7" d="M310.87,124.42l-.05.06a1.29,1.29,0,0,0-.18.13l-.28.22a2.92,2.92,0,0,0-.38.32,9.52,9.52,0,0,0-2.84,4.39l-.14.58c0,.09-.05.19-.07.29l-.05.3c0,.21-.07.42-.08.63l0,.65a9.48,9.48,0,0,0,.34,2.7,9.28,9.28,0,0,0,3.19,4.83,9.54,9.54,0,0,0,2.36,1.36l.6.22c.2.07.41.1.61.17l.3.07.3.06.58.09a9.75,9.75,0,0,0,2.16,0,9.33,9.33,0,0,0,3-.88,2.55,2.55,0,0,0,.43-.23l.32-.17.2-.1.06,0s0,0-.06,0l-.19.12c-.07.06-.2.11-.31.19a3.75,3.75,0,0,1-.44.24,9.09,9.09,0,0,1-3,.92,8.92,8.92,0,0,1-2.19,0l-.6-.07-.3-.05-.3-.08c-.21,0-.41-.1-.62-.17l-.62-.22a9.4,9.4,0,0,1-5.63-6.26,9.82,9.82,0,0,1-.33-2.75l0-.65c0-.22.06-.43.09-.63l.05-.31c0-.1.05-.2.07-.3l.16-.6a9.84,9.84,0,0,1,.89-2,9,9,0,0,1,2-2.41q.19-.16.39-.3l.3-.21.18-.13Z" transform="translate(-0.01 -0.04)"/><g id="freepik--Earth--inject-69"><ellipse class="cls-8" cx="499.72" cy="144.47" rx="107.51" ry="108.24"/><path class="cls-7" d="M459.91,192.76c.57-4.71,4.27-9.49,2.14-13.74-2.37-4.75-9.26-4-14.11-6.11-6.76-3-8.86-11.38-13.28-17.31-4-5.34-13.22-11.15-20.27-9.55-5.1,1.16-6.85,4.2-7.39,7.95l-.64-.11c-1.88-.2-4.1-.3-5.14-1.87-1.2-1.82,0-4.52-1.26-6.31a9.66,9.66,0,0,0-2.69-2c-.91-.64-1.69-1.86-1.14-2.86s1.66-1,2.25-1.76a1.73,1.73,0,0,0,0-2.13c-1.94-2.29-4.09,2.39-5.17,3.49a11.1,11.1,0,0,1-.86.82h0a3,3,0,0,0,0,.6v7a17.85,17.85,0,0,1,3.31,1.63c2.14,1.21,4.42,2.81,4.56,5.22a2.05,2.05,0,0,0,.22,1.14,1.69,1.69,0,0,0,1,.51,29.54,29.54,0,0,0,5.46.76c0,2.13.18,4.43.15,6.57-.06,3.12-1.07,6.19-.74,9.27.5,4.35,3.53,7.93,6.17,11.43,10,13.4,15.44,28.8,21.34,44.53h0c1.06.86,2.64,2,3.76,2.82.89.64,1.7,1.19,2.61,1.8s1.71,1.13,2.64,1.71c.64.41.78.52,1.45.91-.08-.19.08.13,0,0-2.37-5.18-2.37-12.37,2.71-14.93a11.51,11.51,0,0,0,2.88-1.52c2.26-2.13.41-6.56,2.67-8.7,1.28-1.2,3.27-1.07,4.84-1.83,2.85-1.31,3.77-5,3.55-8.07S459.56,195.87,459.91,192.76Z" transform="translate(-0.01 -0.04)"/><path class="cls-7" d="M398.9,113.53c2-1.72,5.47-1.92,7,.22,1.06,1.53.85,3.63.56,5.5-.39,2.52-.78,5-1.19,7.55a4,4,0,0,0,.1,2.26c.75,1.61,3.37,1.3,4.38-.13s.89-3.39.63-5.13-.63-3.58,0-5.21c1.7-4.06,7.74-3.44,11.24-6.07,2.14-1.64,3.15-4.38,4.44-6.78s3.46-4.8,6.18-4.67c.92,0,1.82.37,2.74.34,2.69-.08,4.27-4,2.35-5.92a7,7,0,0,1-1.2-1.23A2.19,2.19,0,0,1,437,91.6a6.15,6.15,0,0,1,2.85-.92c2.3-.39,4.59-.74,6.89-1.07,2.54-.39,5.78-1.71,5.43-4.27-.31-2.19-3.29-3.2-3.73-5.33a7.25,7.25,0,0,0-.28-1.6c-.71-1.39-2.8-.83-4.14-.09a3.34,3.34,0,0,0-4.26-2,3.29,3.29,0,0,0-.79.41c-1.37,1.07-1.54,3.1-2,4.78-1.13,4.09-4.37,7.18-7.46,10.05a6.25,6.25,0,0,1-3.63,2c-1.41.06-2.89-1.45-2.24-2.69.43-.85,1.66-1.34,1.54-2.3-.17-1.19-2.25-1.07-2.65-2.24.82-3.37,4.68-4.76,7.64-6.56A18.64,18.64,0,0,0,438,70.19a2.42,2.42,0,0,0,.09-2c-.43-.84-1.58-1-2.55-1-2.28,0-5.12.28-5.95,2.4-.44,1.14-.12,2.43-.4,3.62-.78,3.54-5.64,3.93-8.59,6a27,27,0,0,1-3.34,2.6,12.69,12.69,0,0,1-4.53.72h-1.24c-.93,1.3-1.67,2.49-2.53,3.83s-1.74,2.86-2.55,4.27a106.07,106.07,0,0,0-9.14,20.86c-.83,2.55-1.55,5.33-2.19,7.9s-1.07,5.12-1.53,7.81a30.57,30.57,0,0,0,1.94-6.76C396.07,117.94,396.9,115.22,398.9,113.53Z" transform="translate(-0.01 -0.04)"/><path class="cls-7" d="M489.24,64.9c1-1.33.72-3.2,1.38-4.79,1.06-2.56,4.49-3.48,5.67-6,.45-1,.57-2.14,1.36-2.89s1.64-.71,2.35-1.25c1.59-1.22.92-4-.76-5-4.22-2.7-12,.42-15.61,3-4.68,3.39-9.27,7.47-15.5,7.07-1.72-.11-3.5-.58-5.11,0s-2.61,3-1.22,4.05c.77.56,1.87.41,2.73.81,1.61.75,1.77,3.07,1,4.66s-2.19,2.77-3.12,4.27a8.19,8.19,0,0,0-1.16,4.93A4.46,4.46,0,0,0,462.7,77c1.93,1.55,4.88.22,6.53-1.63s2.77-4.27,4.89-5.54a12.45,12.45,0,0,1,3.5-1.22l8.12-1.93A5.93,5.93,0,0,0,489.24,64.9Z" transform="translate(-0.01 -0.04)"/><path class="cls-7" d="M607.23,143.69c0-1.55-.06-3.08-.14-4.61s-.15-3.07-.3-4.58c-.12-1.23-.22-2.46-.39-3.66s-.34-2.75-.55-4A95.6,95.6,0,0,0,603.48,116c-.4-1.4-1.06-2.89-1.53-4.27s-.93-2.74-1.44-4.11h0c-.55-1.07-1.12-2-1.75-3-6-9.45-14.65-16.86-21.22-25.91-2.14-3-3.81-5.34-7.6-6-5.61-.87-8.46,2.33-12.44-3-1.07-1.43-2.93-2.76-4.52-1.91l1.28,3.4a1.65,1.65,0,0,1,.13.76c-.09.8-1.27,1-2,.57a6.66,6.66,0,0,1-1.49-1.92,5.5,5.5,0,0,0-7.71-1l-.37.31a3.07,3.07,0,0,0-1.79-2.52,3.69,3.69,0,0,1-4.23,3.07,2.88,2.88,0,0,1-.4-.09c-.32-1.07,1.54-1.23,2.19-2.13s-.13-2-.89-2.69a11.74,11.74,0,0,0-7.4-2.87c-1.72,0-3.58.29-5.07-.6-.86-.51-1.48-1.36-2.37-1.86-1.89-1.06-4.27-.08-6.15,1-2.61,1.44-5.34,3.26-6.21,6.1s1.13,6.66,4.08,6.29a5.77,5.77,0,0,1,2.26-.25A2.73,2.73,0,0,1,518.5,76a7.45,7.45,0,0,0,.5,3.2c.51,1,2.06,1.43,2.64.53,1.4-1.33,1.23-3.56.88-5.45s-.74-4,.38-5.56,4.38-1.06,4.15.86c-.13,1.06-1.41,1.94-1.35,3.07s1.46,1.77,2.61,1.72,2.34-.46,3.46-.16,2,1.75,1.22,2.58c-1.41,1.6-5.08-1.14-5.81.85a4.3,4.3,0,0,0,0,1.64C527,81,525,81.59,523.29,81.79a9.16,9.16,0,0,1-4.95-.35c-1.52-.72-2.55-2.71-1.69-4.13a1.88,1.88,0,0,0-2.54.82l-.06.13a5.52,5.52,0,0,0-.2,3.09c-1.76-.39-3.35,1.07-4.35,2.58s-2,3.21-3.7,3.77-4.12-.19-5,1.38c-1.17,2,2.23,4.62,1.07,6.64-.68,1.15-2.31,1.07-3.6,1.47-3.43,1-4.61,6-2.29,8.64s7,2.52,9.45,0c1.73-1.75,2.43-4.22,3.66-6.33s3.6-4,5.95-3.32a7.2,7.2,0,0,1,2.43,1.53l3.41,2.88c.74.61,1.54,1.38,1.46,2.33-.06.76-.66,1.36-.91,2.08-.72,2,2.26,4,4.14,2.89s2.07-4,.79-5.78c-1.76-2.44-5.76-3.67-5.66-6.7,2-1.66,5.25.09,6.4,2.46s1.23,5.13,2.23,7.56,3.81,4.61,6.16,3.43c-.62-2.14-1.21-4.21-1.83-6.3,1.51-1.12,3.21,2.14,5,1.6,1.07-.34,1.23-1.91.75-3s-1.32-1.93-1.52-3.08c-.34-2.08,2-3.93,4.07-3.59a5.32,5.32,0,0,1,4,4.39,10.78,10.78,0,0,0,.55,2.44c.79,1.63,2.8,2.13,4.48,2.8s3.41,2.36,2.72,4c-.33.72-1.07,1.42-.82,2.13s1.25,1,1.25,1.66c0,.47-.51.8-1,1-1.12.45-2.35.61-3.44,1.14a3.08,3.08,0,0,0-2,2.75c.13,1.71,2.13,2.52,3.1,3.94s.79,3.12,1.37,4.66a16.68,16.68,0,0,0,2.57,3.72c2.82,3.84,3.49,8.79,4.86,13.35.61,2.06,1.73,4.35,3.84,4.75a6.58,6.58,0,0,0,3.41-.66c3-1.21,6.21-2.51,8.33-5s2.86-6.5.66-8.94a1.65,1.65,0,0,0-1.06-.66,3.21,3.21,0,0,0-1.61.56,4.55,4.55,0,0,1-4.74-1.07,13.24,13.24,0,0,1-2.82-4.27l-2.52-5.08a3,3,0,0,1,3.64.35,18.81,18.81,0,0,1,2.49,3.06c2.53,3.2,6.7,4.55,10.73,5a10.43,10.43,0,0,1,3,.63c3,1.38,3.88,5.82,7.06,6.77a22.57,22.57,0,0,1,2.71.6A5,5,0,0,1,595,142c.7,2.5.93,5.14,2,7.52s3.2,4.53,5.75,4.57a6.05,6.05,0,0,0,4.27-1.85c.12-2.35.28-4.78.28-7.16C607.26,144.67,607.26,144.18,607.23,143.69Z" transform="translate(-0.01 -0.04)"/><path class="cls-7" d="M563.72,188.31c-1.6.31-1.92,1.26-2.79,2.44-1.13,1.54-2.76,3.09-3.79,4.61-1.74,2.58-.17,6.62-2.47,8.79a19.17,19.17,0,0,0-1.48,1.22,2.71,2.71,0,0,0,.56,3.75,3.71,3.71,0,0,0,4,.08,5.9,5.9,0,0,0,2.45-3.36,5.49,5.49,0,0,1,1.24-2.74c1.32-1.16,3.36-.3,5.1-.55C573.89,201.52,570.73,186.92,563.72,188.31Z" transform="translate(-0.01 -0.04)"/><path class="cls-7" d="M566.22,168c4.27-3.67,5.95-12,.68-13.87-2-.73-4.27-.14-6.27-.91-2.58-1-3.79-3.89-4.72-6.51q-3.67-10.25-7.35-20.53c-1.47-4.11-3.71-8.89-8-9.5-2.47-.34-4.85.83-7.29,1.27-8.4,1.53-22.52-18.8-28.91-5.11-.9-3.73-6.94-2.33-8.87,1s-2.35,7.67-5.41,10c-2.34,1.75-5.76,1.86-7.66,4.07-1.34,1.56-1.58,3.74-1.75,5.79-.32,3.92-.64,7.82-1,11.74-.26,3.15-.47,6.52,1.07,9.27s5.64,4.27,8,2.13c1.06-1,1.52-2.46,2.4-3.62a6.07,6.07,0,0,1,6.27-2.14,10.51,10.51,0,0,1,4.78,3.36C513.1,166.13,517,182.93,517.49,199c.1,2.94.1,6,1.18,8.69,1.27,3.21,3.93,5.81,4.72,9.16.61,2.58,0,5.41,1.14,7.82,2,4.43,8.84,4.61,12.54,1.44s5-8.29,5.74-13.11,1.23-9.89,3.93-14c1.67-2.53,4.13-4.54,5.33-7.33,1.63-3.89.43-8.53,1.94-12.46C556,174,562,171.68,566.22,168Z" transform="translate(-0.01 -0.04)"/></g><path class="cls-6" d="M406.4,155.29a12.9,12.9,0,1,1,11.82-13.91,12.27,12.27,0,0,1,0,2.1A12.93,12.93,0,0,1,406.4,155.29Z" transform="translate(-0.01 -0.04)"/><path class="cls-9" d="M407.05,155.29a12.9,12.9,0,1,1,11.81-13.91,12.27,12.27,0,0,1,0,2.1A12.93,12.93,0,0,1,407.05,155.29Z" transform="translate(-0.01 -0.04)"/><path class="cls-10" d="M407.05,155.29l.2,0,.61-.09a9.59,9.59,0,0,0,1-.19,11.58,11.58,0,0,0,1.31-.38,13,13,0,0,0,6.63-5.28,13.19,13.19,0,0,0,1.27-2.55,13,13,0,0,0,.42-1.44c.05-.26.11-.51.16-.77s.06-.52.1-.79a5.49,5.49,0,0,0,0-.81v-.82c0-.54-.08-1.1-.15-1.67-.06-.28-.11-.56-.17-.84s-.05-.28-.09-.42l-.14-.42c-.08-.28-.17-.56-.26-.85l-.36-.81-.19-.42c-.06-.13-.15-.26-.22-.39l-.48-.8-.55-.74-.27-.38-.32-.35a12.6,12.6,0,0,0-2.92-2.48l-.85-.48c-.3-.15-.6-.27-.91-.4a4.34,4.34,0,0,0-.48-.2l-.48-.15a9.72,9.72,0,0,0-1-.29,13.9,13.9,0,0,0-4.07-.33,12.9,12.9,0,0,0-11.3,9.38,13.05,13.05,0,0,0-.44,3.47,4.73,4.73,0,0,0,0,.84l.07.84c.1.53.19,1.08.33,1.59a13,13,0,0,0,6.7,8.14l1,.43c.31.13.63.21.92.32a11.67,11.67,0,0,0,1.65.4,12.25,12.25,0,0,0,2.34.19h.62l-.62,0a12.18,12.18,0,0,1-4-.54,9.1,9.1,0,0,1-.93-.3l-1-.43a13.08,13.08,0,0,1-6.85-8.21c-.14-.52-.23-1.07-.34-1.62l-.08-.84a6.26,6.26,0,0,1,0-.86,12.8,12.8,0,0,1,4.48-9.94,13.12,13.12,0,0,1,7.53-3.17,14.14,14.14,0,0,1,4.15.34,8.51,8.51,0,0,1,1,.3l.48.15c.17.06.31.13.48.2s.62.26.92.42l.87.48a12.86,12.86,0,0,1,3,2.53l.32.35.28.39.56.76q.23.41.48.81c.07.14.16.27.22.41l.19.42.36.83a6.59,6.59,0,0,1,.27.86l.14.42c0,.14.06.29.09.44l.17.86c.07.57.12,1.14.15,1.7,0,.28,0,.56,0,.83a7.37,7.37,0,0,1-.05.82c0,.27-.07.54-.11.8s-.11.52-.16.78a14.6,14.6,0,0,1-.43,1.47,13.65,13.65,0,0,1-1.3,2.59,13.24,13.24,0,0,1-3.43,3.57,12.9,12.9,0,0,1-3.33,1.69,9.89,9.89,0,0,1-1.32.36,7.4,7.4,0,0,1-1,.18l-.61.06Z" transform="translate(-0.01 -0.04)"/><path class="cls-3" d="M407.31,142.66a3.7,3.7,0,0,0,2.21-3.43,3.49,3.49,0,1,0-7-.41,2.41,2.41,0,0,0,0,.38,3.71,3.71,0,0,0,2.22,3.46c-5.36.81-5.12,6.63-5.12,6.63l12.67.06S412.62,143.46,407.31,142.66Z" transform="translate(-0.01 -0.04)"/><path class="cls-6" d="M485.53,71.12a12.9,12.9,0,1,1,11.81-13.9,12.16,12.16,0,0,1,0,2.09A12.91,12.91,0,0,1,485.53,71.12Z" transform="translate(-0.01 -0.04)"/><path class="cls-9" d="M486.17,71.12A12.9,12.9,0,1,1,498,57.22a14.58,14.58,0,0,1,0,2.09A12.91,12.91,0,0,1,486.17,71.12Z" transform="translate(-0.01 -0.04)"/><path class="cls-10" d="M486.17,71.12l.21,0L487,71a8.19,8.19,0,0,0,1-.2,10.14,10.14,0,0,0,1.3-.38,12.93,12.93,0,0,0,6.64-5.28,13.19,13.19,0,0,0,1.27-2.55,14,14,0,0,0,.41-1.44c.06-.25.12-.5.16-.76s.07-.52.1-.79a5.51,5.51,0,0,0,.05-.81V58c0-.55-.08-1.11-.16-1.67-.06-.28-.11-.56-.17-.84s-.05-.29-.09-.43l-.13-.41-.27-.85L496.7,53l-.18-.41-.23-.4-.48-.79-.55-.75-.27-.38-.32-.35a12.51,12.51,0,0,0-2.91-2.47l-.86-.48c-.29-.15-.6-.27-.9-.41s-.3-.14-.48-.19l-.48-.15a8.76,8.76,0,0,0-1-.29,14,14,0,0,0-4.08-.33,12.88,12.88,0,0,0-11.29,9.37,13.11,13.11,0,0,0-.44,3.47,4.8,4.8,0,0,0,0,.85l.08.83c.1.54.19,1.08.33,1.6a13,13,0,0,0,2.82,5.17,13.25,13.25,0,0,0,3.88,3l1,.43c.31.13.62.21.92.31a11.24,11.24,0,0,0,1.64.41,13.18,13.18,0,0,0,2.34.18h.62l-.62,0a12.37,12.37,0,0,1-2.35-.14,11.91,11.91,0,0,1-1.67-.39,9.21,9.21,0,0,1-.93-.31l-1-.42a13.09,13.09,0,0,1-6.84-8.21c-.15-.53-.24-1.07-.35-1.62l-.07-.85a6.11,6.11,0,0,1-.05-.86,12.86,12.86,0,0,1,4.48-9.93,13.15,13.15,0,0,1,7.53-3.17,14.14,14.14,0,0,1,4.15.34c.34.08.66.18,1,.29l.48.16c.16,0,.31.13.48.2s.62.26.92.42l.86.48a12.67,12.67,0,0,1,3,2.53l.32.35.28.38.55.77q.23.41.48.81c.07.13.16.26.23.4l.18.42c.12.28.24.56.37.84s.18.57.27.85l.13.43c0,.14.06.29.09.43l.18.86c.07.57.12,1.15.14,1.7,0,.29,0,.56,0,.84a5.64,5.64,0,0,1-.05.82c0,.27-.07.54-.1.8s-.11.52-.17.77a14.78,14.78,0,0,1-.43,1.48,13,13,0,0,1-1.3,2.58,12.89,12.89,0,0,1-6.75,5.27,10.79,10.79,0,0,1-1.32.36,8.05,8.05,0,0,1-1,.17l-.61.07A1.15,1.15,0,0,1,486.17,71.12Z" transform="translate(-0.01 -0.04)"/><path class="cls-3" d="M486.43,58.5a3.7,3.7,0,0,0,2.21-3.43,3.48,3.48,0,1,0-6.95-.42c0,.13,0,.26,0,.38a3.73,3.73,0,0,0,2.22,3.47c-5.36.8-5.11,6.63-5.11,6.63l12.67.05S491.74,59.3,486.43,58.5Z" transform="translate(-0.01 -0.04)"/><path class="cls-6" d="M547,100.84a12.91,12.91,0,1,1,11.81-13.91,12.27,12.27,0,0,1,0,2.1A12.93,12.93,0,0,1,547,100.84Z" transform="translate(-0.01 -0.04)"/><path class="cls-9" d="M547.62,100.84a12.91,12.91,0,1,1,11.82-13.91,14.72,14.72,0,0,1,0,2.1A12.93,12.93,0,0,1,547.62,100.84Z" transform="translate(-0.01 -0.04)"/><path class="cls-10" d="M547.62,100.84l.21,0,.61-.09a8.19,8.19,0,0,0,1-.2,10.14,10.14,0,0,0,1.3-.38,12.93,12.93,0,0,0,6.64-5.28,13.4,13.4,0,0,0,1.27-2.54c.16-.48.3-1,.41-1.44.06-.26.12-.51.16-.77s.07-.52.1-.79a5.51,5.51,0,0,0,.05-.81v-.82c0-.54-.08-1.11-.16-1.67-.06-.28-.11-.56-.17-.84s0-.29-.09-.43l-.13-.41-.27-.85-.36-.81-.18-.42-.23-.4-.48-.79-.55-.75-.27-.38-.32-.35a12.6,12.6,0,0,0-2.92-2.47l-.85-.48c-.29-.15-.6-.27-.9-.41s-.3-.14-.48-.19l-.48-.15c-.32-.11-.64-.21-1-.29a14,14,0,0,0-4.08-.33,12.88,12.88,0,0,0-11.29,9.37,13.6,13.6,0,0,0-.45,3.47,6,6,0,0,0,0,.85l.08.84c.1.53.19,1.08.33,1.59A12.83,12.83,0,0,0,537,96.55a13.25,13.25,0,0,0,3.88,3l1,.43c.31.13.62.21.91.31a11.7,11.7,0,0,0,1.65.41,12.24,12.24,0,0,0,2.34.18h.62l-.62,0a11.6,11.6,0,0,1-2.35-.14,11.91,11.91,0,0,1-1.67-.39,9.21,9.21,0,0,1-.93-.31l-1-.42A13.11,13.11,0,0,1,534,91.41c-.14-.53-.23-1.07-.34-1.62l-.07-.85a6.06,6.06,0,0,1,0-.85A12.87,12.87,0,0,1,538,78.15,13.15,13.15,0,0,1,545.51,75a14.14,14.14,0,0,1,4.15.34c.33.08.66.18,1,.29l.48.16.48.2c.3.14.62.26.92.42l.86.48a12.67,12.67,0,0,1,3,2.53l.31.35.29.39.55.76q.22.41.48.81c.07.14.16.26.23.4l.18.43c.12.27.24.55.37.83a8.57,8.57,0,0,1,.27.86l.13.42c0,.14.06.29.09.44l.18.85c.07.58.12,1.15.14,1.7,0,.29,0,.57,0,.84a7.52,7.52,0,0,1-.05.82c0,.27-.07.54-.1.8s-.11.52-.17.77a14.78,14.78,0,0,1-.43,1.48,14,14,0,0,1-1.3,2.59,12.93,12.93,0,0,1-6.75,5.26,10.79,10.79,0,0,1-1.32.36,6.44,6.44,0,0,1-1,.17l-.61.07Z" transform="translate(-0.01 -0.04)"/><path class="cls-3" d="M547.88,88.21a3.7,3.7,0,0,0,2.21-3.43,3.49,3.49,0,1,0-7-.41v.38a3.72,3.72,0,0,0,2.22,3.46c-5.36.81-5.11,6.63-5.11,6.63l12.67.06S553.19,89,547.88,88.21Z" transform="translate(-0.01 -0.04)"/><path class="cls-6" d="M603.48,157.33a12.9,12.9,0,1,1,11.81-13.9,12.16,12.16,0,0,1,0,2.09A12.92,12.92,0,0,1,603.48,157.33Z" transform="translate(-0.01 -0.04)"/><path class="cls-9" d="M604.12,157.33a12.9,12.9,0,1,1,11.81-13.9,12.16,12.16,0,0,1,0,2.09A12.92,12.92,0,0,1,604.12,157.33Z" transform="translate(-0.01 -0.04)"/><path class="cls-10" d="M604.12,157.33l.21,0,.61-.08a8.19,8.19,0,0,0,1-.2,10.14,10.14,0,0,0,1.3-.38,12.93,12.93,0,0,0,6.64-5.28,13.15,13.15,0,0,0,1.26-2.55,11.88,11.88,0,0,0,.42-1.44c.05-.25.12-.5.16-.76s.07-.52.1-.79a5.49,5.49,0,0,0,0-.81v-.82c0-.55-.07-1.11-.15-1.67-.06-.28-.11-.56-.17-.85,0-.13,0-.28-.09-.42l-.13-.42L615,140l-.36-.82-.19-.41c-.06-.13-.14-.26-.22-.4l-.48-.79-.55-.75-.27-.38-.32-.35a12.36,12.36,0,0,0-2.92-2.47l-.85-.48c-.3-.15-.6-.27-.9-.41s-.31-.14-.48-.2l-.48-.14a8.76,8.76,0,0,0-1-.29,14,14,0,0,0-4.08-.33,12.91,12.91,0,0,0-11.3,9.37,13.11,13.11,0,0,0-.44,3.47,4.84,4.84,0,0,0,0,.85l.07.83c.1.54.19,1.08.33,1.6a13,13,0,0,0,6.71,8.14l1,.43c.3.13.62.21.91.31a11.7,11.7,0,0,0,1.65.41,13.11,13.11,0,0,0,2.34.18h.62l-.62,0a12.42,12.42,0,0,1-2.36-.14,11.77,11.77,0,0,1-1.66-.39,9.21,9.21,0,0,1-.93-.31l-1-.42a13.11,13.11,0,0,1-6.85-8.21c-.14-.53-.23-1.08-.34-1.62l-.08-.85a6.12,6.12,0,0,1,0-.86,12.8,12.8,0,0,1,4.48-9.93,13,13,0,0,1,7.53-3.17,14.14,14.14,0,0,1,4.15.34c.33.08.66.18,1,.29l.48.16a4,4,0,0,1,.48.2c.31.14.62.26.93.41l.86.48a13.12,13.12,0,0,1,3,2.53l.31.36.29.38.55.77q.22.4.48.81c.07.13.16.26.22.4l.19.42c.12.28.24.56.37.84s.17.57.26.85l.14.43c0,.14.06.29.09.43l.17.86c.07.57.12,1.14.15,1.7,0,.28,0,.56,0,.84a7.52,7.52,0,0,1-.05.82c0,.27-.07.54-.11.8s-.11.52-.16.77a14.78,14.78,0,0,1-.43,1.48,13.56,13.56,0,0,1-1.3,2.58A13.4,13.4,0,0,1,610.6,155a13.12,13.12,0,0,1-3.34,1.69,9.89,9.89,0,0,1-1.32.36,7.4,7.4,0,0,1-1,.17l-.61.06A.69.69,0,0,1,604.12,157.33Z" transform="translate(-0.01 -0.04)"/><path class="cls-3" d="M604.38,144.71a3.7,3.7,0,0,0,2.21-3.43,3.49,3.49,0,0,0-7-.42,2.41,2.41,0,0,0,0,.38,3.71,3.71,0,0,0,2.22,3.47c-5.36.8-5.12,6.63-5.12,6.63l12.67,0S609.69,145.51,604.38,144.71Z" transform="translate(-0.01 -0.04)"/><path class="cls-6" d="M533.92,220.81a12.9,12.9,0,1,1,11.82-13.91,14.72,14.72,0,0,1,0,2.1A12.93,12.93,0,0,1,533.92,220.81Z" transform="translate(-0.01 -0.04)"/><path class="cls-9" d="M534.57,220.81a12.9,12.9,0,1,1,11.81-13.91,12.27,12.27,0,0,1,0,2.1A12.93,12.93,0,0,1,534.57,220.81Z" transform="translate(-0.01 -0.04)"/><path class="cls-10" d="M534.57,220.81l.2,0,.61-.09a7.41,7.41,0,0,0,1-.19,11.42,11.42,0,0,0,1.3-.38,13.15,13.15,0,0,0,7.91-7.83q.24-.71.42-1.44c0-.26.11-.51.16-.77s.06-.52.1-.79a7,7,0,0,0,0-.8v-.82q0-.82-.15-1.68c-.06-.28-.11-.56-.17-.84s-.05-.28-.09-.42l-.14-.42q-.12-.42-.27-.84l-.36-.82-.18-.41c-.07-.14-.15-.27-.22-.4l-.48-.79-.55-.75-.28-.38-.31-.35a12.85,12.85,0,0,0-2.92-2.48l-.86-.48c-.29-.14-.6-.26-.9-.4a4.34,4.34,0,0,0-.48-.2l-.48-.15a9.72,9.72,0,0,0-1-.29,13.93,13.93,0,0,0-4.07-.33,12.92,12.92,0,0,0-11.3,9.38,13.11,13.11,0,0,0-.44,3.47,4.73,4.73,0,0,0,0,.84l.07.84c.1.54.19,1.08.33,1.59a13.06,13.06,0,0,0,2.82,5.18,13.34,13.34,0,0,0,3.88,3l1,.43c.31.13.63.21.92.32a11.67,11.67,0,0,0,1.65.4,12.19,12.19,0,0,0,2.34.19h.61l-.61,0a11.66,11.66,0,0,1-2.36-.15,9.53,9.53,0,0,1-1.66-.39c-.3-.09-.62-.17-.94-.3l-1-.43a13.1,13.1,0,0,1-6.84-8.21c-.14-.52-.24-1.07-.35-1.62l-.07-.84a6.19,6.19,0,0,1,0-.86,12.82,12.82,0,0,1,4.48-9.94,13.1,13.1,0,0,1,7.52-3.17,14.52,14.52,0,0,1,4.16.34c.33.09.66.18,1,.3l.48.15c.16.06.31.14.48.2s.62.27.92.42l.87.48a12.86,12.86,0,0,1,3,2.53l.32.36.28.38.55.76c.16.28.32.54.49.81l.22.41.19.42.36.83a7.1,7.1,0,0,1,.27.86l.14.43.09.43.17.86c.07.57.12,1.14.15,1.7a7.58,7.58,0,0,1,0,.83,5.56,5.56,0,0,1,0,.82c0,.27-.08.54-.11.8s-.11.52-.16.78c-.12.5-.27,1-.43,1.48a13.32,13.32,0,0,1-1.31,2.58,13.1,13.1,0,0,1-3.42,3.58,12.87,12.87,0,0,1-3.33,1.68,9.89,9.89,0,0,1-1.32.36,8.1,8.1,0,0,1-1,.18l-.61.06A1.09,1.09,0,0,1,534.57,220.81Z" transform="translate(-0.01 -0.04)"/><path class="cls-3" d="M534.83,208.18a3.72,3.72,0,0,0,2.21-3.43,3.49,3.49,0,0,0-7-.41,2.41,2.41,0,0,0,0,.38,3.7,3.7,0,0,0,2.21,3.46c-5.35.81-5.11,6.63-5.11,6.63l12.67.06S540.14,209,534.83,208.18Z" transform="translate(-0.01 -0.04)"/><path class="cls-6" d="M445.24,209.78a12.9,12.9,0,1,1,11.81-13.91,12.27,12.27,0,0,1,0,2.1A12.92,12.92,0,0,1,445.24,209.78Z" transform="translate(-0.01 -0.04)"/><path class="cls-9" d="M445.88,209.78a12.9,12.9,0,1,1,11.82-13.91,13.38,13.38,0,0,1,0,2.1A12.91,12.91,0,0,1,445.88,209.78Z" transform="translate(-0.01 -0.04)"/><path class="cls-10" d="M445.88,209.78l.21,0,.61-.09a8.14,8.14,0,0,0,1-.19,12,12,0,0,0,1.3-.38,13,13,0,0,0,6.64-5.28,12.87,12.87,0,0,0,1.26-2.55,11.88,11.88,0,0,0,.42-1.44c.05-.26.12-.51.16-.76s.07-.53.1-.8a4.25,4.25,0,0,0,0-.8v-.82a15.93,15.93,0,0,0-.15-1.67c-.06-.29-.11-.57-.17-.85s-.05-.28-.09-.42l-.13-.42-.27-.84-.36-.82-.18-.41c-.07-.14-.15-.27-.23-.4l-.48-.79-.55-.75-.27-.38-.32-.35a12.36,12.36,0,0,0-2.92-2.47l-.85-.48c-.29-.15-.6-.27-.9-.41s-.31-.14-.48-.2l-.48-.15c-.32-.11-.64-.21-1-.29a14.35,14.35,0,0,0-4.08-.33,12.89,12.89,0,0,0-11.29,9.38,13.12,13.12,0,0,0-.45,3.47,5.91,5.91,0,0,0,0,.84l.07.84c.11.54.2,1.08.34,1.59a12.94,12.94,0,0,0,2.82,5.18,13.21,13.21,0,0,0,3.88,3l1,.43c.3.14.62.21.91.32a11.67,11.67,0,0,0,1.65.4,12.25,12.25,0,0,0,2.34.19h.62l-.62,0a11.56,11.56,0,0,1-2.35-.15,9.64,9.64,0,0,1-1.67-.39,9.1,9.1,0,0,1-.93-.3l-1-.43a13.08,13.08,0,0,1-6.85-8.21c-.14-.52-.23-1.07-.34-1.62l-.07-.84a6.2,6.2,0,0,1-.05-.86,12.88,12.88,0,0,1,4.48-9.94,13.15,13.15,0,0,1,7.53-3.17,14.48,14.48,0,0,1,4.15.34c.33.09.66.18,1,.3l.48.15c.16.06.31.14.48.2l.92.42.86.48a12.91,12.91,0,0,1,3,2.53l.31.36.29.38.55.76q.23.42.48.81c.07.14.16.27.23.41l.18.42c.12.28.24.56.37.84s.17.57.27.85l.13.43c0,.14.06.28.09.43l.17.86c.08.57.12,1.14.15,1.7,0,.28,0,.56,0,.83a7.37,7.37,0,0,1-.05.82c0,.27-.07.54-.1.81s-.11.51-.17.77c-.12.5-.26,1-.43,1.48a13.86,13.86,0,0,1-1.3,2.58,13.4,13.4,0,0,1-3.42,3.58,13.23,13.23,0,0,1-3.33,1.69q-.66.21-1.32.36c-.32.07-.64.13-1,.17l-.61.06A1.17,1.17,0,0,1,445.88,209.78Z" transform="translate(-0.01 -0.04)"/><path class="cls-3" d="M446.14,197.15a3.68,3.68,0,0,0,2.21-3.43,3.49,3.49,0,0,0-7-.41v.38a3.71,3.71,0,0,0,2.22,3.46c-5.36.81-5.12,6.63-5.12,6.63l12.67.06S451.45,198,446.14,197.15Z" transform="translate(-0.01 -0.04)"/><path class="cls-6" d="M516.82,152.16a12.91,12.91,0,1,1,11.81-13.91,12.27,12.27,0,0,1,0,2.1A12.93,12.93,0,0,1,516.82,152.16Z" transform="translate(-0.01 -0.04)"/><path class="cls-9" d="M517.46,152.16a12.91,12.91,0,1,1,11.81-13.91,12.27,12.27,0,0,1,0,2.1A12.92,12.92,0,0,1,517.46,152.16Z" transform="translate(-0.01 -0.04)"/><path class="cls-10" d="M517.46,152.16l.21,0,.61-.09a8.19,8.19,0,0,0,1-.2,10.09,10.09,0,0,0,1.3-.37,13,13,0,0,0,6.64-5.29,12.79,12.79,0,0,0,1.26-2.54,13,13,0,0,0,.42-1.44c0-.26.12-.51.16-.77s.07-.52.1-.79a5.49,5.49,0,0,0,0-.81V139c0-.54-.07-1.11-.15-1.67-.06-.28-.11-.56-.17-.84s-.05-.29-.09-.42l-.13-.42-.27-.85L528,134l-.19-.42a3.84,3.84,0,0,0-.22-.39l-.48-.8-.55-.75-.27-.37-.32-.36a12.6,12.6,0,0,0-2.92-2.47l-.85-.48c-.29-.15-.6-.27-.9-.41l-.48-.19-.48-.15c-.32-.11-.64-.21-1-.29a14,14,0,0,0-4.08-.33A12.91,12.91,0,0,0,504,136a13.61,13.61,0,0,0-.44,3.48,4.73,4.73,0,0,0,0,.84l.07.84c.1.53.2,1.08.33,1.59a13,13,0,0,0,6.71,8.14l1,.43c.3.13.62.21.91.31a11.7,11.7,0,0,0,1.65.41,13.12,13.12,0,0,0,2.34.19h.62l-.62,0a12,12,0,0,1-4-.53,7.24,7.24,0,0,1-.93-.31l-1-.42a13.11,13.11,0,0,1-6.85-8.21c-.14-.53-.23-1.07-.34-1.62l-.08-.84a6.26,6.26,0,0,1,0-.86,12.84,12.84,0,0,1,4.48-9.94,13.12,13.12,0,0,1,7.53-3.17,14.14,14.14,0,0,1,4.15.34c.33.08.66.18,1,.29l.48.16c.17.06.32.13.48.2s.62.26.93.42l.86.48a12.87,12.87,0,0,1,3,2.53l.31.35.29.39.55.76q.23.41.48.81c.07.14.16.27.22.4l.19.43c.12.28.24.55.37.83a8.52,8.52,0,0,1,.26.86l.14.42c0,.14.06.29.09.44l.17.86c.08.57.12,1.14.15,1.69,0,.29,0,.57,0,.84a7.52,7.52,0,0,1,0,.82c0,.27-.07.54-.11.8s-.11.52-.16.78a14.6,14.6,0,0,1-.43,1.47,14,14,0,0,1-1.3,2.59,13.36,13.36,0,0,1-3.42,3.57,13.12,13.12,0,0,1-3.34,1.69,9.89,9.89,0,0,1-1.32.36,7.4,7.4,0,0,1-1,.18l-.61.06Z" transform="translate(-0.01 -0.04)"/><path class="cls-3" d="M517.72,139.53a3.7,3.7,0,0,0,2.21-3.43,3.49,3.49,0,1,0-7-.41c0,.12,0,.25,0,.38a3.71,3.71,0,0,0,2.22,3.46c-5.36.81-5.12,6.63-5.12,6.63l12.67.06S523,140.33,517.72,139.53Z" transform="translate(-0.01 -0.04)"/><path class="cls-11" d="M418.84,144.55s.43-.65,1.29-1.78" transform="translate(-0.01 -0.04)"/><path class="cls-12" d="M422.9,139.34c14.79-17.35,70-68.56,165.67-4.48" transform="translate(-0.01 -0.04)"/><path class="cls-11" d="M590.41,136.11l1.81,1.24" transform="translate(-0.01 -0.04)"/><path class="cls-13" d="M441.56,184.47s-10-59,66.26-55" transform="translate(-0.01 -0.04)"/><path class="cls-13" d="M495.89,65.14s77.52,54.72,36.51,130.09" transform="translate(-0.01 -0.04)"/><path class="cls-13" d="M529.25,141.42s51.28-8.63,28.09-46.57" transform="translate(-0.01 -0.04)"/><path class="cls-9" d="M423.47,202a1.63,1.63,0,0,0,2.89-.12l4-8.31a13.27,13.27,0,0,0,1.4-5.1c0-5-5.22-8.27-10.63-5.85a6.14,6.14,0,0,0-2.63,2.18c-1.8,2.78-1.2,6.07.09,8.78Zm3.33-9.19c-3.94,2.26-7.89-2-5.72-6.12a3.4,3.4,0,0,1,1.26-1.32c3.93-2.25,7.88,2,5.71,6.13A3.28,3.28,0,0,1,426.8,192.78Z" transform="translate(-0.01 -0.04)"/><path class="cls-9" d="M406.06,127.54a1.64,1.64,0,0,0,2.24.6,1.77,1.77,0,0,0,.66-.72l4-8.31a13.27,13.27,0,0,0,1.4-5.1c0-5-5.22-8.27-10.62-5.85a6.06,6.06,0,0,0-2.64,2.19c-1.79,2.77-1.19,6.06.09,8.77Zm3.33-9.19c-3.93,2.26-7.88-2-5.71-6.12a3.37,3.37,0,0,1,1.25-1.32c3.93-2.25,7.88,2,5.71,6.13A3.22,3.22,0,0,1,409.39,118.35Z" transform="translate(-0.01 -0.04)"/><path class="cls-9" d="M466.16,58.89a1.64,1.64,0,0,0,2.24.6,1.77,1.77,0,0,0,.66-.72l4-8.31a13.31,13.31,0,0,0,1.4-5.1c0-5-5.22-8.27-10.62-5.85a6.11,6.11,0,0,0-2.64,2.18c-1.79,2.78-1.2,6.07.09,8.78Zm3.33-9.19c-3.93,2.26-7.88-2-5.71-6.12A3.31,3.31,0,0,1,465,42.26c3.93-2.25,7.88,2,5.71,6.13A3.22,3.22,0,0,1,469.49,49.7Z" transform="translate(-0.01 -0.04)"/><path class="cls-9" d="M531.21,137.74a1.64,1.64,0,0,0,2.24.6,1.68,1.68,0,0,0,.66-.71l4-8.32a13.27,13.27,0,0,0,1.4-5.1c0-5-5.22-8.26-10.62-5.84a6,6,0,0,0-2.64,2.18c-1.79,2.77-1.19,6.07.09,8.78Zm3.33-9.18c-3.93,2.25-7.88-2-5.71-6.12a3.24,3.24,0,0,1,1.25-1.32c3.93-2.26,7.88,2,5.71,6.13A3.28,3.28,0,0,1,534.54,128.56Z" transform="translate(-0.01 -0.04)"/><path class="cls-9" d="M594.24,132.34a1.63,1.63,0,0,0,2.23.6,1.62,1.62,0,0,0,.66-.71l4-8.32a13.1,13.1,0,0,0,1.39-5.1c0-5-5.21-8.27-10.62-5.84a6,6,0,0,0-2.63,2.18c-1.8,2.77-1.2,6.06.09,8.77Zm3.32-9.18c-3.93,2.25-7.88-2-5.71-6.12a3.31,3.31,0,0,1,1.25-1.32c3.94-2.26,7.89,2,5.72,6.12A3.27,3.27,0,0,1,597.56,123.16Z" transform="translate(-0.01 -0.04)"/><path class="cls-9" d="M533.16,193.41a1.63,1.63,0,0,0,2.24.6,1.57,1.57,0,0,0,.66-.71l4-8.31a13.33,13.33,0,0,0,1.4-5.11c0-5-5.22-8.26-10.62-5.84a6.08,6.08,0,0,0-2.63,2.18c-1.8,2.78-1.2,6.07.09,8.78Zm3.33-9.18c-3.93,2.25-7.88-2-5.71-6.12a3.31,3.31,0,0,1,1.25-1.32c3.93-2.25,7.88,2,5.71,6.13A3.28,3.28,0,0,1,536.49,184.23Z" transform="translate(-0.01 -0.04)"/><path class="cls-9" d="M559.57,83a1.65,1.65,0,0,0,2.24.6,1.62,1.62,0,0,0,.66-.71l4-8.32a13.27,13.27,0,0,0,1.4-5.1c0-5-5.22-8.27-10.62-5.84a6,6,0,0,0-2.63,2.18c-1.8,2.77-1.2,6.06.09,8.77Zm3.33-9.18c-3.93,2.25-7.88-2-5.71-6.12a3.24,3.24,0,0,1,1.25-1.32c3.93-2.26,7.88,2,5.71,6.12A3.24,3.24,0,0,1,562.9,73.79Z" transform="translate(-0.01 -0.04)"/><path class="cls-7" d="M244.34,356.32l4.32,27-24.08,3.88-4.22-26.29c-24.08,2.36-48.16-1.42-63.07-9.81l8.53-31.53a98.09,98.09,0,0,0,49.49,9.81l-6.43-40.22c-27.81-2.21-59.09-6.37-64.64-40.8-4.07-25.55,11-50.47,48.36-60.87l-4.32-26.77,24.13-3.83,4.17,26.24a111.2,111.2,0,0,1,51.3,6.87l-7.31,31.58a99.87,99.87,0,0,0-38.89-6.62l6.57,40.95c27.76,2,58.56,6.18,64,40.17C296.28,321.06,281.42,345.68,244.34,356.32ZM203.19,253.67l-5.49-34.33c-12.31,4.91-16.23,12.75-15,20.7S192.06,252,203.19,253.67ZM254,305.12c-1.37-8.44-9.07-11.92-20-13.88l5.3,33.25c11.62-4.36,15.94-11.67,14.71-19.37Z" transform="translate(-0.01 -0.04)"/><g id="freepik--Floor--inject-31"><path class="cls-5" d="M315.7,386.93c98.1,0,324.7.09,324.7.22s-226.64.21-324.7.21-177.58-.09-177.58-.21S217.6,386.93,315.7,386.93Z" transform="translate(-0.01 -0.04)"/></g><path class="cls-14" d="M226.17,256.37a3.85,3.85,0,0,0,1.47,3.3,5.11,5.11,0,0,0,3.06.87,9.7,9.7,0,0,0,2.21-.28c1.45,2.49,4,4.46,8.37,4.25,9.84-.45,9.23-13.3,9.23-13.3H231v1.11a5.38,5.38,0,0,0-3.57,1A3.74,3.74,0,0,0,226.17,256.37Zm2.63,1.76a2.06,2.06,0,0,1-.68-1.76,1.88,1.88,0,0,1,.6-1.55,3.66,3.66,0,0,1,2.43-.57,17.62,17.62,0,0,0,.95,4.23,4.73,4.73,0,0,1-3.3-.35Z" transform="translate(-0.01 -0.04)"/><path class="cls-5" d="M236.71,249.94a.69.69,0,0,1-.14-.39,1.56,1.56,0,0,1,.82-1.32c.56-.38,1.5-.36,2.21-.95a2.18,2.18,0,0,0,.05-2.8c-.62-1-1.81-1.65-2.74-2.78a5.07,5.07,0,0,1-.83-4.44,4.91,4.91,0,0,1,1.24-2.18,8,8,0,0,1,2.18-1.41,5.56,5.56,0,0,0,2-1.45,2.3,2.3,0,0,0,.37-2.32,1.34,1.34,0,0,0-.4-.42l.22-.37a4.56,4.56,0,0,1,2.08,4.72,4,4,0,0,1-1.2,2.27,8.6,8.6,0,0,0-1.65,1.65,2,2,0,0,0,0,2,4.34,4.34,0,0,0,1.37,1.49c1.09.72,2.35,1.13,3.3,1.88a3.7,3.7,0,0,1,1.51,2.77,4.35,4.35,0,0,1-.47,2.35,3.42,3.42,0,0,1-1,1.17,2.2,2.2,0,0,1-.32.21l-.12.06a4.38,4.38,0,0,0,1.26-1.51,4.26,4.26,0,0,0,.39-2.25,3.49,3.49,0,0,0-1.46-2.56c-.92-.7-2.15-1.08-3.34-1.84a4.54,4.54,0,0,1-1.51-1.6,2.57,2.57,0,0,1-.32-1.18,2.32,2.32,0,0,1,.28-1.21,8.4,8.4,0,0,1,1.69-1.73,3.6,3.6,0,0,0,1.09-2,4.12,4.12,0,0,0-1.87-4.28l.22-.37a1.58,1.58,0,0,1,.54.58,2.2,2.2,0,0,1,.19,1.47,3.12,3.12,0,0,1-.58,1.3,6,6,0,0,1-2.2,1.58,7.81,7.81,0,0,0-2.08,1.32,4.63,4.63,0,0,0-1.15,2,4.75,4.75,0,0,0,.7,4.13c.85,1.07,2.06,1.76,2.73,2.84a3.28,3.28,0,0,1,.48,1.7,1.84,1.84,0,0,1-.63,1.44,3.07,3.07,0,0,1-1.25.56,4.66,4.66,0,0,0-1,.36,1.51,1.51,0,0,0-.83,1.17,1.07,1.07,0,0,0,.17.49S236.71,250,236.71,249.94Z" transform="translate(-0.01 -0.04)"/><polygon class="cls-10" points="258.36 319.08 258.55 387.11 255.55 387.11 253.97 318.91 258.36 319.08"/><polygon class="cls-10" points="237.3 318.15 225.13 387.11 228.48 387.11 243.1 318.15 237.3 318.15"/><polygon class="cls-5" points="275.37 318.63 290.05 387.11 286.7 387.11 270.52 318.91 275.37 318.63"/><path class="cls-7" d="M255.91,295.92c6.35,16.7,26,14.85,29.13,14.85s20.13-.26,14.3,5.83-75.22,5.84-82.11-1.59-7.95-29.19-9.8-50.64S224.12,244,224.12,244C251.14,242.92,249.55,279.21,255.91,295.92Z" transform="translate(-0.01 -0.04)"/><path class="cls-10" d="M207.39,259.27c-.48,7.56,3,42,4.68,48.45s-1.13,12.35,38.94,13.21,48.34-4.27,49.27-5.58-2.16-3.31-2.16-3.31-10.69,3.23-27.65,4.3c-14.63.9-41.58-.54-48.47-7.16s-10.6-32.58-11.92-47.41S222.93,244,222.93,244C211.69,245.32,207.88,251.7,207.39,259.27Z" transform="translate(-0.01 -0.04)"/><path class="cls-10" d="M267,183.11c1.88-.81,4,.87,4.8,2.76s.88,4,1.8,5.88c1.88,3.83,7.14,5.77,7.66,10,.37,3.16-2.16,6.28-1.28,9.33.54,2.06,2.6,3.51,3,5.61s-1.15,4.38-3,5.77a15.09,15.09,0,0,1-16.5,1c-2.42-1.45-4.54-3.62-7.31-4.12-2.38-.43-4.77.46-7,1.35s-4.63,1.82-7,1.45-4.67-2.59-4.19-5c.46-2,2.59-3.33,2.93-5.35s-1.46-4.08-1.84-6.23c-.4-2.31.9-4.58,2.48-6.29s3.5-3.15,4.79-5.09c1.83-2.74,2.25-6.23,4-9a10.73,10.73,0,0,1,12.38-4.13" transform="translate(-0.01 -0.04)"/><path class="cls-15" d="M250.66,219.63l.17-27.88,9.08-10.32,10.37,4.95s.58,13.23.33,19-5.87,6.47-5.87,6.47-.49,6.35-.22,7.86Z" transform="translate(-0.01 -0.04)"/><path class="cls-5" d="M268.81,195.8a.72.72,0,0,0,0,1.43.72.72,0,0,0,.73-.71A.73.73,0,0,0,268.81,195.8Z" transform="translate(-0.01 -0.04)"/><path class="cls-5" d="M269.74,194.81a1.85,1.85,0,0,0-2.25-.11c-.26.18-.39.3-.31.41s.66-.29,1.43-.26,1.31.49,1.4.39S270,195,269.74,194.81Z" transform="translate(-0.01 -0.04)"/><path class="cls-5" d="M261.13,196.37a.72.72,0,0,0-1.43.15v.16a.72.72,0,1,0,1.43-.16A.38.38,0,0,0,261.13,196.37Z" transform="translate(-0.01 -0.04)"/><path class="cls-5" d="M261.19,195a1.92,1.92,0,0,0-1.12-.43,1.83,1.83,0,0,0-1.13.33c-.26.18-.39.3-.31.4s.66-.29,1.43-.25,1.31.48,1.4.39S261.42,195.15,261.19,195Z" transform="translate(-0.01 -0.04)"/><path class="cls-5" d="M265.63,202H266a.47.47,0,0,0,.33-.3,1.39,1.39,0,0,0-.08-.83q-.27-.78-.54-1.65a28.83,28.83,0,0,0-1.56-4.12,30.52,30.52,0,0,0,1.25,4.26c.19.59.38,1.13.55,1.65a1.13,1.13,0,0,1,.12.63c0,.14-.22.19-.42.19a4.85,4.85,0,0,0-1.25.19A4.5,4.5,0,0,0,265.63,202Z" transform="translate(-0.01 -0.04)"/><path class="cls-16" d="M264.67,213.22c-5.61.34-7.36-3.85-7.36-3.85a13.64,13.64,0,0,0,7.43,2.47Z" transform="translate(-0.01 -0.04)"/><path class="cls-16" d="M264.13,204.05a.26.26,0,0,1-.13.27.65.65,0,0,1-.29.11,2.81,2.81,0,0,1-1.15.08,1,1,0,0,1-.83-.74.83.83,0,0,1,.46-.82,1.17,1.17,0,0,1,1,0,1.51,1.51,0,0,1,.89,1.1" transform="translate(-0.01 -0.04)"/><path class="cls-5" d="M263,203.56a3.2,3.2,0,0,0,1.61.72c0,.05-.2.15-.58.15a2,2,0,0,1-1.33-.55,2,2,0,0,1-.63-1.31c0-.37.06-.57.11-.57S262.27,202.9,263,203.56Z" transform="translate(-0.01 -0.04)"/><path class="cls-5" d="M271.05,186.9a7.81,7.81,0,0,0-2.75-4.4,10.25,10.25,0,0,0-5.59-2,14.66,14.66,0,0,0-12,5.08,12.22,12.22,0,0,0-2.7,10.68c.35,1.31,1.23,7.19,2.68,7.42s2.62-5.64,3.1-7.06.48-3,1-4.39c1.62,1.38,4.1,1.24,6,.31a15.72,15.72,0,0,0,4.73-4.22l-1.56,3.43a6.89,6.89,0,0,0,6.82-6.05" transform="translate(-0.01 -0.04)"/><path class="cls-10" d="M279.88,211a7.68,7.68,0,0,0,2.83-2.94,7,7,0,0,0,.42-5.86,7.45,7.45,0,0,0-5.41-4.62,3.4,3.4,0,0,1-1.87-.91,3.15,3.15,0,0,1-.75-1.92,18.27,18.27,0,0,1,.55-3.66,4.84,4.84,0,0,0-.6-3.09,5,5,0,0,0-2-1.94c-.76-.43-1.51-.72-2.14-1a7.4,7.4,0,0,1-1.59-.92,3.2,3.2,0,0,1-.82-.82,1.24,1.24,0,0,1-.19-.36,5.42,5.42,0,0,0,1.08,1.06,8.5,8.5,0,0,0,1.58.83c.64.28,1.37.55,2.2,1a5.26,5.26,0,0,1,2.8,5.33,19,19,0,0,0-.51,3.58,2.75,2.75,0,0,0,.64,1.65,3,3,0,0,0,1.65.79,7.5,7.5,0,0,1,3.56,1.8,8,8,0,0,1,2.11,3.09,7.15,7.15,0,0,1-.53,6.15,7.45,7.45,0,0,1-3,2.94,5.78,5.78,0,0,1-1.06.44.93.93,0,0,1-.4.09S279,211.46,279.88,211Z" transform="translate(-0.01 -0.04)"/><path class="cls-10" d="M240.72,219.06c-.22-.12-.6-.33-1.05-.61a11.4,11.4,0,0,1-1.55-1.22,6.42,6.42,0,0,1-1.49-2.12,5,5,0,0,1-.22-3.14,3.66,3.66,0,0,1,.89-1.55,7.42,7.42,0,0,1,1.55-1,3.6,3.6,0,0,0,2-3.08c.07-1.31-.81-2.5-1.19-3.95a5.89,5.89,0,0,1,.67-4.21,10.24,10.24,0,0,1,2.56-3c2-1.61,3.91-2.73,5.27-4a8.91,8.91,0,0,0,2.47-3.61,9.55,9.55,0,0,0,.33-1.59,1.55,1.55,0,0,1,0,.43,5.45,5.45,0,0,1-.19,1.21,8.75,8.75,0,0,1-2.43,3.77c-1.36,1.38-3.34,2.54-5.23,4.13a10.1,10.1,0,0,0-2.47,2.93,5.56,5.56,0,0,0-.62,3.91c.33,1.33,1.25,2.57,1.2,4.06a4,4,0,0,1-2.1,3.34,7.29,7.29,0,0,0-1.47,1,3.14,3.14,0,0,0-.82,1.38,4.6,4.6,0,0,0,.16,2.93,7.79,7.79,0,0,0,2.82,3.3c.85.61,1.34.94,1.34.94A1.34,1.34,0,0,1,240.72,219.06Z" transform="translate(-0.01 -0.04)"/><path class="cls-5" d="M270.76,192.74l.18.17a9.9,9.9,0,0,0-1-6.23c-.13-.26-.33-.54-.64-.46s-.32.46-.32.76a14.38,14.38,0,0,0,.37,3.06,4.81,4.81,0,0,0,1.6,2.57" transform="translate(-0.01 -0.04)"/><path class="cls-3" d="M294.17,386.82c-2.58.71-18.25-.32-22.08-.63l-.82-.08.33-10.85,13.9.38-.15,7.42S297.08,386,294.17,386.82Z" transform="translate(-0.01 -0.04)"/><path class="cls-10" d="M271.21,385.71l.11-3.88a4.63,4.63,0,0,1,3.22,1.1,4.84,4.84,0,0,1,1.7,3Z" transform="translate(-0.01 -0.04)"/><path class="cls-10" d="M289.78,386.48l-18.51-.67v.31c7,.81,22.82,1.24,23.38.57s-3.58-2-3.58-2C290.26,384.73,289.78,386.48,289.78,386.48Z" transform="translate(-0.01 -0.04)"/><path class="cls-5" d="M271.27,385.9H272l2.52.13c2.14.1,5.08.24,8.34.33s6.21.14,8.34.14h0c-2.13,0-5.08,0-8.34-.09s-6.21-.24-8.34-.38l-2.52-.18-.69-.05H271Z" transform="translate(-0.01 -0.04)"/><path class="cls-5" d="M289.79,386.69a2.23,2.23,0,0,1,1.39-2.13,4.91,4.91,0,0,0-.88.94,5.41,5.41,0,0,0-.51,1.19Z" transform="translate(-0.01 -0.04)"/><path class="cls-5" d="M286.06,383.89c.21-.31.41-.56.45-.53s-.11.31-.31.62a1.79,1.79,0,0,1-.46.52A1.63,1.63,0,0,1,286.06,383.89Z" transform="translate(-0.01 -0.04)"/><path class="cls-5" d="M285,383.43c.25-.21.48-.34.51-.31s-.16.22-.4.44-.49.35-.49.31S284.78,383.65,285,383.43Z" transform="translate(-0.01 -0.04)"/><path class="cls-5" d="M284,382.54a3.23,3.23,0,0,1,1.45.06,1.75,1.75,0,0,1-.72.06,1.52,1.52,0,0,1-.73-.12Z" transform="translate(-0.01 -0.04)"/><path class="cls-5" d="M284.57,381.7a4.67,4.67,0,0,1,.83.08,1.48,1.48,0,0,1-.83.09,1.43,1.43,0,0,1-.83-.26A5.7,5.7,0,0,1,284.57,381.7Z" transform="translate(-0.01 -0.04)"/><path class="cls-5" d="M287.16,383.17a7.36,7.36,0,0,0,.93-.21,3.59,3.59,0,0,0,.51-.2c.15-.09.21-.26.08-.37a1.4,1.4,0,0,0-1.06-.1,1.56,1.56,0,0,0-.78.48,2.53,2.53,0,0,0-.43.75.53.53,0,0,1,0-.25,1.6,1.6,0,0,1,.31-.59,1.64,1.64,0,0,1,2-.4.36.36,0,0,1,.13.36.51.51,0,0,1-.23.27,2.83,2.83,0,0,1-.55.21,5.14,5.14,0,0,1-1,.18,2.72,2.72,0,0,1-.9,0S286.59,383.29,287.16,383.17Z" transform="translate(-0.01 -0.04)"/><path class="cls-5" d="M286.45,382.75a1.6,1.6,0,0,0-.24-.59c-.13-.18-.39-.43-.58-.39s-.11.37,0,.57a5.07,5.07,0,0,0,.36.54c.24.29.41.46.41.46a1.41,1.41,0,0,1-.49-.38,3.2,3.2,0,0,1-.42-.55,1.36,1.36,0,0,1-.14-.4.37.37,0,0,1,.29-.41.92.92,0,0,1,.74.47,1.57,1.57,0,0,1,.22.66.84.84,0,0,1-.12.62A3,3,0,0,0,286.45,382.75Z" transform="translate(-0.01 -0.04)"/><path class="cls-5" d="M271.73,382a3.3,3.3,0,0,1,.77,0,4.38,4.38,0,0,1,2.31,1,4.22,4.22,0,0,1,1.34,2.12,3.1,3.1,0,0,1,.13.75c0,.18,0,.28,0,.28a8.93,8.93,0,0,0-.23-1,4.34,4.34,0,0,0-3.56-3c-.63-.06-1-.06-1-.06A.86.86,0,0,1,271.73,382Z" transform="translate(-0.01 -0.04)"/><path class="cls-5" d="M273.07,379.12a24.82,24.82,0,0,1-.2,2.85,22.74,22.74,0,0,1,0-2.86,21,21,0,0,1,.2-2.86A27.48,27.48,0,0,1,273.07,379.12Z" transform="translate(-0.01 -0.04)"/><path class="cls-5" d="M280.12,384.93c1.12.06,2,0,2,.06a7.34,7.34,0,0,1-2,.1,7.27,7.27,0,0,1-2-.25A16.15,16.15,0,0,1,280.12,384.93Z" transform="translate(-0.01 -0.04)"/><path class="cls-5" d="M275.71,385.1c.07.24.05.46,0,.46s-.09-.18-.19-.39-.15-.41-.15-.41S275.63,384.86,275.71,385.1Z" transform="translate(-0.01 -0.04)"/><path class="cls-5" d="M274.65,383.67c.14.15.22.29.19.33s-.17-.07-.31-.22a.89.89,0,0,1-.19-.32C274.41,383.43,274.51,383.51,274.65,383.67Z" transform="translate(-0.01 -0.04)"/><path class="cls-5" d="M273.38,382.8c.25.09.35.29.32.32s-.17-.09-.38-.16-.4-.08-.4-.13S273.13,382.71,273.38,382.8Z" transform="translate(-0.01 -0.04)"/><path class="cls-5" d="M272.1,382.53c.12.05.19.11.17.16s-.12.05-.24,0-.17-.12-.17-.16S272,382.48,272.1,382.53Z" transform="translate(-0.01 -0.04)"/><path class="cls-3" d="M328.53,342.71c-2,1.8-16.42,8-20,9.43l-.82.32-4.61-9.83,12.56-6,3.22,6.69S330.72,340.71,328.53,342.71Z" transform="translate(-0.01 -0.04)"/><path class="cls-10" d="M307.65,352.28,306,348.76a4.77,4.77,0,0,1,3.37-.48,4.87,4.87,0,0,1,2.87,1.92Z" transform="translate(-0.01 -0.04)"/><path class="cls-10" d="M324.42,344.38l-16.8,7.78.12.29c6.59-2.44,20.94-9.23,21.11-10.07s-4.08-.14-4.08-.14C324.05,342.62,324.42,344.38,324.42,344.38Z" transform="translate(-0.01 -0.04)"/><path class="cls-5" d="M307.67,352.15l.63-.29,2.3-1c2-.87,4.64-2.08,7.59-3.48s5.58-2.7,7.5-3.65l2.26-1.13.62-.29.22-.1-.21.13-.6.33-2.24,1.17c-1.89,1-4.53,2.3-7.48,3.69s-5.65,2.62-7.61,3.44l-2.36,1-.64.26a.62.62,0,0,1-.23.07Z" transform="translate(-0.01 -0.04)"/><path class="cls-5" d="M324.26,343.28a1.91,1.91,0,0,1,.53-1.23,3.58,3.58,0,0,0-.27,2.54A1.84,1.84,0,0,1,324.26,343.28Z" transform="translate(-0.01 -0.04)"/><path class="cls-5" d="M319.92,343.77a1.73,1.73,0,0,1,.16-.67c.05,0,0,.32,0,.69s-.11.67-.16.67S319.87,344.15,319.92,343.77Z" transform="translate(-0.01 -0.04)"/><path class="cls-5" d="M318.8,343.84c.12-.3.24-.52.29-.51s0,.27-.14.57a1.35,1.35,0,0,1-.3.51S318.67,344.13,318.8,343.84Z" transform="translate(-0.01 -0.04)"/><path class="cls-5" d="M318.07,343.14a1.69,1.69,0,0,1,.69-.22,1.65,1.65,0,0,1-.62.38,1.74,1.74,0,0,1-.7.22S317.7,343.32,318.07,343.14Z" transform="translate(-0.01 -0.04)"/><path class="cls-5" d="M318.37,342.2a2.13,2.13,0,0,1-1.55.6Z" transform="translate(-0.01 -0.04)"/><path class="cls-5" d="M320.57,342.71a6.15,6.15,0,0,0,.74-.61,2.3,2.3,0,0,0,.35-.41c.11-.15.08-.35-.09-.35a1.3,1.3,0,0,0-1,.38,1.63,1.63,0,0,0-.48.78,2.27,2.27,0,0,0,0,.82s-.08-.07-.08-.22a1,1,0,0,1,0-.34,1.65,1.65,0,0,1,1.68-1.62.33.33,0,0,1,.27.26.53.53,0,0,1-.07.35,5.48,5.48,0,0,1-.4.44,5,5,0,0,1-.78.59,2.58,2.58,0,0,1-.82.39A5.6,5.6,0,0,1,320.57,342.71Z" transform="translate(-0.01 -0.04)"/><path class="cls-5" d="M319.79,342.57a1.91,1.91,0,0,0-.48-.42.86.86,0,0,0-.7-.09c-.19.13,0,.41.23.52a2.68,2.68,0,0,0,.57.32,4.71,4.71,0,0,0,.57.23,1.41,1.41,0,0,1-.61-.11,2.77,2.77,0,0,1-.62-.31,1.23,1.23,0,0,1-.31-.29.36.36,0,0,1,.08-.5.88.88,0,0,1,.86.09,1.59,1.59,0,0,1,.51.49.92.92,0,0,1,.16.61A2.69,2.69,0,0,0,319.79,342.57Z" transform="translate(-0.01 -0.04)"/><path class="cls-5" d="M306.28,348.52a3.52,3.52,0,0,1,.67-.34,4.26,4.26,0,0,1,4.67,1.09,3.92,3.92,0,0,1,.45.62.72.72,0,0,1,.12.25s-.21-.34-.66-.78a4.37,4.37,0,0,0-4.54-1.07,4.9,4.9,0,0,0-.94.41A.81.81,0,0,1,306.28,348.52Z" transform="translate(-0.01 -0.04)"/><path class="cls-5" d="M306.14,345.41a25.41,25.41,0,0,1,1.11,2.64,25.29,25.29,0,0,1-1.26-2.56,23.47,23.47,0,0,1-1.12-2.64A22.56,22.56,0,0,1,306.14,345.41Z" transform="translate(-0.01 -0.04)"/><path class="cls-5" d="M315.1,347.39c1-.47,1.84-.9,1.84-.86a8,8,0,0,1-1.78,1,7.92,7.92,0,0,1-1.91.69S314.08,347.86,315.1,347.39Z" transform="translate(-0.01 -0.04)"/><path class="cls-5" d="M311.21,349.56c.23.16.27.37.23.39s-.16-.12-.34-.27-.32-.24-.32-.29S311,349.39,311.21,349.56Z" transform="translate(-0.01 -0.04)"/><path class="cls-5" d="M309.68,348.72c.19.08.34.16.33.21s-.19,0-.38-.05-.32-.16-.32-.21S309.49,348.65,309.68,348.72Z" transform="translate(-0.01 -0.04)"/><path class="cls-5" d="M308.12,348.58a.51.51,0,0,1,.43.13h-.41a3.16,3.16,0,0,0-.41.07S307.84,348.61,308.12,348.58Z" transform="translate(-0.01 -0.04)"/><path class="cls-5" d="M306.89,348.87c.11,0,.21,0,.22.07s-.09.1-.21.1a.44.44,0,0,1-.24-.06C306.66,348.93,306.77,348.88,306.89,348.87Z" transform="translate(-0.01 -0.04)"/><path class="cls-3" d="M235.55,246.23l.82,20.32a43.33,43.33,0,0,0-6.44,18.32l43.58,1.75-4.13-19.42,1.28-12s4.13-1.83,4.13-5.78a14.42,14.42,0,0,0-1.88-6.75l14,11.56,5.92-14.91s-7.76-8.43-14.08-15.55c-6.09-6.89-16-5.56-16-5.56l-13.38.23s-17,.82-19.15,12.92l-3,14.86Z" transform="translate(-0.01 -0.04)"/><path class="cls-5" d="M245.9,230.59c-.07.62-.19,1.51-.38,2.62-.34,2.22-.9,5.32-1.53,8.62s-1.21,6.29-1.65,8.58c-.2,1-.37,1.9-.51,2.6a4.54,4.54,0,0,1-.23,1,4,4,0,0,1,.06-1c.08-.61.2-1.51.38-2.62.35-2.21.91-5.31,1.54-8.62s1.2-6.28,1.65-8.58c.2-1,.37-1.9.51-2.6a4,4,0,0,1,.23-.95A4.62,4.62,0,0,1,245.9,230.59Z" transform="translate(-0.01 -0.04)"/><path class="cls-5" d="M235.09,245.27a72.26,72.26,0,0,1,8.06.24,77.39,77.39,0,0,1-8.06.19,74.57,74.57,0,0,1-8.05-.25A77.26,77.26,0,0,1,235.09,245.27Z" transform="translate(-0.01 -0.04)"/><path class="cls-15" d="M229.88,271.91c6.61.47,37.57-.17,46.33-.65a96.88,96.88,0,0,0,11.68-.42c3.79-.53,6.4-.73,6.27-1.18-.36-1.18-6.68.68-5.55-.52s8-1.36,7.56-2.58c-.56-1.59-7.15.5-7.7.61s-.78-.72-.26-.82c.75-.15,8.57-1.74,8-3.3-.3-.87-1.77-.19-1.77-.19s-7.19,2.13-7.43,1.3,4-2.13,5.42-2.48,1.85-1.18,1.17-1.7c-.45-.35-4.91.61-6.33,1s-5.3,1.5-3.82-.65,1.83-4.36,1.52-5a.86.86,0,0,0-.52-.33.83.83,0,0,0-1,.67,10.34,10.34,0,0,1-1.06,2.41,6.61,6.61,0,0,1-1.33,1.65c-.61.52-1.27-.06-1.74.29-7.8-.13-37.7-1.33-38.08-3.16-.42-2.06,1.5-11.14,1.5-11.14H227.38s-1.18,6.09-2,13.21C225.08,261.36,222.18,271.32,229.88,271.91Z" transform="translate(-0.01 -0.04)"/><path class="cls-5" d="M273.6,244.74c-.23-.64-.49-1.35-.77-2.1-.14-.39-.31-.81-.48-1.22-.11-.21-.21-.43-.3-.65a2.3,2.3,0,0,1-.11-.78,8.64,8.64,0,0,1,.23-1.44l.27-1.3c.16-.79.32-1.52.47-2.19a10,10,0,0,1,.54-2,10.25,10.25,0,0,1-.24,2.06c-.12.67-.25,1.38-.38,2.21-.09.42-.17.85-.25,1.29a10.81,10.81,0,0,0-.21,1.37,2,2,0,0,0,.08.65c.06.19.19.39.29.62.17.42.33.85.47,1.24.28.8.5,1.53.68,2.15a12.54,12.54,0,0,1,.53,2A8.28,8.28,0,0,1,273.6,244.74Z" transform="translate(-0.01 -0.04)"/><path class="cls-10" d="M251,192.72c-1.1,1.59-2.83,2.6-4.3,3.87s-2.8,3-2.58,4.95c.15,1.44,1.16,2.78.9,4.2-.21,1.12-1.14,1.93-1.79,2.87-1.57,2.34-1.32,5.46-.4,8.12a9.43,9.43,0,0,0,3.69,5.17,6.79,6.79,0,0,0,6.69.07,7.7,7.7,0,0,0,3.77-5.6,9,9,0,0,0-1.8-6.61c-1-1.25-2.38-2.47-2.29-4.12.15-2,2.36-3.23,2.63-5.17.22-1.68-1.13-3.21-1.33-4.86-.26-1.92,1-3.69,2.22-5.23" transform="translate(-0.01 -0.04)"/><path class="cls-17" d="M265,228.07a5.41,5.41,0,0,1-.41-1.81,3.38,3.38,0,0,1,.82,1.69,3.28,3.28,0,0,1,.19,1.88A6.11,6.11,0,0,1,265,228.07Z" transform="translate(-0.01 -0.04)"/><path class="cls-17" d="M275.29,228.75c.54-.51,1-.93,1.09-.86s-.25.63-.82,1.18-1.16.83-1.22.73S274.74,229.27,275.29,228.75Z" transform="translate(-0.01 -0.04)"/><path class="cls-17" d="M282.61,236.44h.19c.05.35.09,1.13.24,1.95a16.47,16.47,0,0,1,.43,2.18,3.68,3.68,0,0,1-.82-2.1,5.38,5.38,0,0,1,0-2h.19a.53.53,0,0,1-.13.22S282.66,236.6,282.61,236.44Z" transform="translate(-0.01 -0.04)"/><path class="cls-17" d="M284.73,244.34a4.23,4.23,0,0,1,1.81-.47c0,.11-.69.5-1.65.87a4.39,4.39,0,0,1-1.81.48C283,245.1,283.79,244.72,284.73,244.34Z" transform="translate(-0.01 -0.04)"/><path class="cls-17" d="M275.41,239a4,4,0,0,1-.36-1.53c.11-.05.49.56.76,1.41s.29,1.59.18,1.59A4.69,4.69,0,0,1,275.41,239Z" transform="translate(-0.01 -0.04)"/><path class="cls-17" d="M270,221.54c.78,0,1.4.13,1.4.28s-.64.19-1.42.15-1.39-.17-1.39-.28S269.19,221.51,270,221.54Z" transform="translate(-0.01 -0.04)"/><path class="cls-17" d="M267.86,236.3c.41-.83.58-1.56.71-1.56a2.4,2.4,0,0,1-.33,1.75c-.45.9-1.12,1.4-1.19,1.32S267.44,237.12,267.86,236.3Z" transform="translate(-0.01 -0.04)"/><path class="cls-17" d="M253.89,235.44c.77.66,1.37,1.22,1.31,1.32s-.8-.31-1.59-1-1.3-1.34-1.22-1.42S253.13,234.78,253.89,235.44Z" transform="translate(-0.01 -0.04)"/><path class="cls-17" d="M260.92,232.76c.63.47,1.09.92,1,1s-.64-.21-1.28-.69-1.09-.92-1-1S260.28,232.29,260.92,232.76Z" transform="translate(-0.01 -0.04)"/><path class="cls-17" d="M257.56,224.84c.81-.69,1.41-1.33,1.51-1.26s-.41.86-1.23,1.59a3.47,3.47,0,0,1-1.76,1C256,226,256.74,225.53,257.56,224.84Z" transform="translate(-0.01 -0.04)"/><path class="cls-17" d="M249.05,224.55c.65.5,1.12,1,1,1.07s-.66-.24-1.32-.73-1.11-1-1-1.06S248.4,224.06,249.05,224.55Z" transform="translate(-0.01 -0.04)"/><path class="cls-17" d="M240.07,225.46a3.1,3.1,0,0,1,0-1.81,5.34,5.34,0,0,1,.44,1.73,5.52,5.52,0,0,1,.26,1.76C240.66,227.18,240.28,226.45,240.07,225.46Z" transform="translate(-0.01 -0.04)"/><path class="cls-17" d="M240.92,233.52c.82-.77,1.57-1.32,1.65-1.23s-.55.77-1.38,1.55-1.57,1.33-1.65,1.24S240.09,234.3,240.92,233.52Z" transform="translate(-0.01 -0.04)"/><path class="cls-17" d="M233,230.24a3.84,3.84,0,0,1-.48-1.65c.11-.05.51.68.88,1.5a3.65,3.65,0,0,1,.48,1.65C233.8,231.79,233.4,231.11,233,230.24Z" transform="translate(-0.01 -0.04)"/><path class="cls-17" d="M232.43,239.57a5,5,0,0,1-.83-1.91,5.45,5.45,0,0,1,1.18,1.71,5.06,5.06,0,0,1,.83,1.92A5.08,5.08,0,0,1,232.43,239.57Z" transform="translate(-0.01 -0.04)"/><path class="cls-17" d="M240.09,241.17c.61-.81,1.18-1.41,1.27-1.33s-.31.77-.92,1.58-1.17,1.41-1.27,1.33S239.49,242,240.09,241.17Z" transform="translate(-0.01 -0.04)"/><path class="cls-17" d="M248.17,244.7a12.51,12.51,0,0,1-1.38-2.2,6.08,6.08,0,0,1,1.75,2,6.16,6.16,0,0,1,1.13,2.38A13.26,13.26,0,0,1,248.17,244.7Z" transform="translate(-0.01 -0.04)"/><path class="cls-17" d="M257.21,246.08a11.78,11.78,0,0,1,2-4,6,6,0,0,1-.79,2.1,5.87,5.87,0,0,1-1.16,1.91Z" transform="translate(-0.01 -0.04)"/><path class="cls-17" d="M268.72,245.33a7.28,7.28,0,0,1,1.73,1.8,7.28,7.28,0,0,1-2-1.47,7.73,7.73,0,0,1-1.73-1.79A7.05,7.05,0,0,1,268.72,245.33Z" transform="translate(-0.01 -0.04)"/><path class="cls-17" d="M264.43,252.28a4.86,4.86,0,0,1,1.9-1.33,12.91,12.91,0,0,1-1.58,1.65c-.87.89-1.55,1.66-1.65,1.58A4.86,4.86,0,0,1,264.43,252.28Z" transform="translate(-0.01 -0.04)"/><path class="cls-17" d="M255.35,252.61a10.87,10.87,0,0,1-1.09-1.87c.09-.12.84.58,1.46,1.65a4.18,4.18,0,0,1,.73,2.11A10.47,10.47,0,0,1,255.35,252.61Z" transform="translate(-0.01 -0.04)"/><path class="cls-17" d="M248.87,253.83a7.23,7.23,0,0,1,2-1.43,7.78,7.78,0,0,1-1.77,1.76,7.06,7.06,0,0,1-2,1.42A7.35,7.35,0,0,1,248.87,253.83Z" transform="translate(-0.01 -0.04)"/><path class="cls-17" d="M249.41,229.83c.84-.61,1.5-1.15,1.59-1.07s-.46.79-1.33,1.42a3.49,3.49,0,0,1-1.74.83A8.17,8.17,0,0,1,249.41,229.83Z" transform="translate(-0.01 -0.04)"/><path class="cls-17" d="M263.05,274c.8.59,1.23,1.27,1.13,1.35s-.64-.45-1.38-1-1.41-.91-1.36-1S262.25,273.4,263.05,274Z" transform="translate(-0.01 -0.04)"/><path class="cls-17" d="M252.81,273.69a9,9,0,0,1-1.36,3.69A9.26,9.26,0,0,1,252.81,273.69Z" transform="translate(-0.01 -0.04)"/><path class="cls-17" d="M242.83,275c.72.75,1.23,1.43,1.15,1.51s-.73-.46-1.45-1.21-1.24-1.43-1.15-1.51S242.12,274.28,242.83,275Z" transform="translate(-0.01 -0.04)"/><path class="cls-17" d="M235.55,278.2a2.2,2.2,0,0,1,1.94.31c0,.11-.85-.08-1.84.11s-1.66.72-1.75.63A2.33,2.33,0,0,1,235.55,278.2Z" transform="translate(-0.01 -0.04)"/><path class="cls-18" d="M233.9,307.58c7,1.47,46.87-13.11,46.87-13.11l22.05,53.45,20.49-8.81s-25.44-62.9-31-65.52-62.51,9.33-62.51,9.33S226.92,306.11,233.9,307.58Z" transform="translate(-0.01 -0.04)"/><path class="cls-18" d="M233.9,307.58l36.59,9.29-1.16,64.3h18.76s5.71-72.35,3.38-76.7-35.3-17.91-36.17-18.2Z" transform="translate(-0.01 -0.04)"/><path class="cls-5" d="M234.21,307.6l1.52-.35,5.59-1.26c4.71-1.08,11.2-2.63,18.29-4.67,3.53-1,6.89-2,9.91-3.09s5.72-2,8-2.94c1.12-.41,2.13-.87,3-1.24s1.65-.7,2.26-1l1.42-.63a3.24,3.24,0,0,1,.52-.19,3.72,3.72,0,0,1-.48.27l-1.39.7c-.59.31-1.36.65-2.24,1s-1.87.85-3,1.3c-2.22.95-4.94,2-7.94,3s-6.36,2.11-9.91,3.14c-7.09,2.07-13.61,3.55-18.34,4.54-2.37.51-4.29.89-5.62,1.13l-1.54.28a3.07,3.07,0,0,1-.53.06A2.21,2.21,0,0,1,234.21,307.6Z" transform="translate(-0.01 -0.04)"/><path class="cls-5" d="M291.44,320c0-.78.08-1.7.17-3s.2-2.76.32-4.41a20.75,20.75,0,0,0,0-5.34,8.22,8.22,0,0,0-2.58-4.5,14.45,14.45,0,0,0-3.62-2.43c-2.25-1.06-3.7-1.58-3.7-1.65a5.5,5.5,0,0,1,1.05.31,27.79,27.79,0,0,1,2.79,1.09,14.42,14.42,0,0,1,3.75,2.42,8.4,8.4,0,0,1,2.73,4.71,19.21,19.21,0,0,1,0,5.46c-.15,1.63-.28,3.21-.4,4.4s-.23,2.18-.32,3a5.65,5.65,0,0,1-.17,1.08A4.74,4.74,0,0,1,291.44,320Z" transform="translate(-0.01 -0.04)"/><path class="cls-5" d="M270.57,316.83a13.77,13.77,0,0,1,4.44-1.95A14,14,0,0,1,270.57,316.83Z" transform="translate(-0.01 -0.04)"/><path class="cls-5" d="M272.18,315.26a4.78,4.78,0,0,1-2,1.76c-.06-.1.83-.88,1.65-2,.46-.73,1-1.44,1.49-2.12A4.62,4.62,0,0,1,272.18,315.26Z" transform="translate(-0.01 -0.04)"/><path class="cls-5" d="M267.51,316.08a10.11,10.11,0,0,1,1.65-.05,1.51,1.51,0,0,1,.94.5,1.85,1.85,0,0,1,.36,1.06,29.28,29.28,0,0,1-.2,5,29,29,0,0,1-.23-5,1.1,1.1,0,0,0-.93-1.19,11.61,11.61,0,0,0-1.56,0,2.17,2.17,0,0,1-1.09-.26.69.69,0,0,1-.29-.3A2.74,2.74,0,0,0,267.51,316.08Z" transform="translate(-0.01 -0.04)"/><polygon class="cls-18" points="165.5 270.76 174.5 270.76 169.11 387.01 172.61 387.01 177.99 270.76 378.77 270.76 385.11 387.11 388.59 386.92 382.27 270.76 394.52 270.76 394.52 264.65 165.5 264.65 165.5 270.76"/><polygon class="cls-10" points="291.91 228.51 281.2 263.01 257.95 263.74 257.52 265.64 315.03 265.64 327.73 228.54 291.91 228.51"/><path class="cls-9" d="M305.08,243.82c1.18.29,1.81,1.77,1.45,3.3a2.54,2.54,0,0,1-2.83,2.18c-1.18-.28-1.83-1.77-1.45-3.3A2.55,2.55,0,0,1,305.08,243.82Z" transform="translate(-0.01 -0.04)"/><rect class="cls-18" x="345.95" y="211.25" width="107.14" height="30.04" rx="2.85"/><path class="cls-9" d="M368.55,231.32a6.52,6.52,0,1,1-1-9.17,6.53,6.53,0,0,1,1,9.17Z" transform="translate(-0.01 -0.04)"/><path class="cls-3" d="M367.13,225a30,30,0,0,1-3.53,3.77l-.88.82-.16.16-.16-.16a19.47,19.47,0,0,1-2.64-3,19.53,19.53,0,0,1,2.95,2.65h-.32l.88-.89A30.4,30.4,0,0,1,367.13,225Z" transform="translate(-0.01 -0.04)"/><path class="cls-3" d="M442.65,224.11c0,.13-13.62.23-30.42.23s-30.42-.1-30.42-.23,13.62-.23,30.42-.23S442.65,224,442.65,224.11Z" transform="translate(-0.01 -0.04)"/><path class="cls-3" d="M417.7,230.06c0,.12-7.88.22-17.58.22s-17.64-.1-17.64-.22,7.88-.23,17.64-.23S417.7,230,417.7,230.06Z" transform="translate(-0.01 -0.04)"/><path class="cls-18" d="M346.17,237l-6.53,7.88,9.83-3.83S352.47,236.8,346.17,237Z" transform="translate(-0.01 -0.04)"/></svg>